<svg xmlns="http://www.w3.org/2000/svg" xmlns:xlink="http://www.w3.org/1999/xlink" width="500" zoomAndPan="magnify" viewBox="0 0 375 374.999991" height="500" preserveAspectRatio="xMidYMid meet" version="1.0"><defs><g/><clipPath id="c825788152"><path d="M 120 37.5 L 254.90625 37.5 L 254.90625 187.5 L 120 187.5 Z M 120 37.5 " clip-rule="nonzero"/></clipPath></defs><rect x="-37.5" width="450" fill="#ffffff" y="-37.499999" height="449.999989" fill-opacity="1"/><rect x="-37.5" width="450" fill="#ffffff" y="-37.499999" height="449.999989" fill-opacity="1"/><path fill="#aba8a8" d="M 137.476562 60 L 122.496094 60 L 122.496094 40 L 252.316406 40 L 252.316406 60 L 137.476562 60 " fill-opacity="1" fill-rule="nonzero"/><path fill="#474749" d="M 244.828125 52.5 L 129.984375 52.5 L 129.984375 47.5 L 244.828125 47.5 L 244.828125 52.5 " fill-opacity="1" fill-rule="nonzero"/><path fill="#63bf31" d="M 217.363281 107.5 L 237.335938 107.5 L 237.335938 50 L 137.476562 50 L 137.476562 107.5 L 217.363281 107.5 " fill-opacity="1" fill-rule="nonzero"/><path fill="#eecba7" d="M 176.863281 107.5 C 175.507812 106.472656 174.035156 105.644531 172.425781 105 L 172.425781 91.25 C 172.425781 87.800781 169.628906 85 166.1875 85 C 164.460938 85 162.890625 85.703125 161.769531 86.824219 C 160.648438 87.949219 159.945312 89.519531 159.945312 91.25 L 159.945312 117.5 L 167.433594 135 L 167.433594 147.5 L 207.378906 147.5 L 207.378906 135 C 210.421875 133.445312 212.917969 131.121094 214.664062 128.328125 C 216.390625 125.527344 217.363281 122.246094 217.363281 118.828125 L 217.363281 107.5 L 176.863281 107.5 " fill-opacity="1" fill-rule="nonzero"/><path fill="#33913b" d="M 157.449219 97.5 C 157.449219 91.972656 152.980469 87.5 147.460938 87.5 L 147.460938 70 C 152.980469 70 157.449219 65.527344 157.449219 60 L 217.363281 60 C 217.363281 62.753906 218.484375 65.253906 220.28125 67.078125 C 222.105469 68.875 224.601562 70 227.351562 70 L 227.351562 87.5 C 224.601562 87.5 222.105469 88.621094 220.28125 90.417969 C 218.484375 92.246094 217.363281 94.746094 217.363281 97.5 L 172.425781 97.5 " fill-opacity="1" fill-rule="nonzero"/><path fill="#63bf31" d="M 194.894531 78.75 C 194.894531 83.574219 190.976562 87.5 186.15625 87.5 C 181.339844 87.5 177.421875 83.574219 177.421875 78.75 C 177.421875 73.925781 181.339844 70 186.15625 70 C 190.976562 70 194.894531 73.925781 194.894531 78.75 " fill-opacity="1" fill-rule="nonzero"/><path fill="#e9b788" d="M 187.40625 127.5 L 182.414062 127.5 L 182.414062 123.476562 C 182.414062 118.125 179.90625 112.996094 175.695312 109.753906 L 178.746094 105.789062 C 184.167969 109.96875 187.40625 116.582031 187.40625 123.476562 L 187.40625 127.5 " fill-opacity="1" fill-rule="nonzero"/><path fill="#3b6cbd" d="M 214.867188 185 L 154.953125 185 L 154.953125 147.5 L 214.867188 147.5 L 214.867188 185 " fill-opacity="1" fill-rule="nonzero"/><path fill="#474749" d="M 169.929688 171.25 C 169.929688 173.320312 168.253906 175 166.1875 175 C 164.117188 175 162.441406 173.320312 162.441406 171.25 C 162.441406 169.179688 164.117188 167.5 166.1875 167.5 C 168.253906 167.5 169.929688 169.179688 169.929688 171.25 " fill-opacity="1" fill-rule="nonzero"/><path fill="#2c59ae" d="M 214.867188 162.5 L 162.441406 162.5 L 162.441406 157.5 L 214.867188 157.5 L 214.867188 162.5 " fill-opacity="1" fill-rule="nonzero"/><g clip-path="url(#c825788152)"><path fill="#100f0d" d="M 124.992188 42.5 L 249.820312 42.5 L 249.820312 57.5 L 239.832031 57.5 L 239.832031 52.5 L 244.828125 52.5 L 244.828125 47.5 L 129.984375 47.5 L 129.984375 52.5 L 134.980469 52.5 L 134.980469 57.5 L 124.992188 57.5 Z M 234.839844 105 L 177.703125 105 C 176.824219 104.402344 175.898438 103.855469 174.921875 103.378906 L 174.921875 100 L 217.363281 100 C 218.738281 100 219.859375 98.875 219.859375 97.5 C 219.859375 93.359375 223.214844 90 227.351562 90 C 228.726562 90 229.847656 88.875 229.847656 87.5 L 229.847656 70 C 229.847656 68.621094 228.726562 67.5 227.351562 67.5 C 223.214844 67.5 219.859375 64.140625 219.859375 60 C 219.859375 58.621094 218.738281 57.5 217.363281 57.5 L 157.449219 57.5 C 156.074219 57.5 154.953125 58.621094 154.953125 60 C 154.953125 64.140625 151.597656 67.5 147.460938 67.5 C 146.085938 67.5 144.964844 68.621094 144.964844 70 L 144.964844 87.5 C 144.964844 88.875 146.085938 90 147.460938 90 C 151.597656 90 154.953125 93.359375 154.953125 97.5 L 157.449219 97.5 L 157.449219 105 L 139.972656 105 L 139.972656 52.5 L 234.839844 52.5 Z M 206.257812 132.761719 C 205.417969 133.183594 204.882812 134.050781 204.882812 135 L 204.882812 145 L 169.929688 145 L 169.929688 135 C 169.929688 134.65625 169.863281 134.324219 169.726562 134.011719 L 162.441406 116.980469 L 162.441406 91.25 C 162.441406 89.179688 164.117188 87.5 166.1875 87.5 C 168.253906 87.5 169.929688 89.179688 169.929688 91.25 L 169.929688 105 C 169.929688 106.023438 170.554688 106.941406 171.5 107.324219 C 178.132812 109.980469 182.414062 116.308594 182.414062 123.464844 L 182.414062 127.5 L 187.40625 127.5 L 187.40625 123.464844 C 187.40625 118.457031 185.738281 113.789062 182.882812 110 L 214.867188 110 L 214.867188 118.816406 C 214.867188 124.765625 211.570312 130.105469 206.257812 132.761719 Z M 212.371094 157.5 L 162.441406 157.5 L 162.441406 162.5 L 212.371094 162.5 L 212.371094 182.5 L 157.449219 182.5 L 157.449219 150 L 212.371094 150 Z M 157.554688 90.222656 C 155.75 87.722656 153.078125 85.886719 149.957031 85.253906 L 149.957031 72.246094 C 154.84375 71.25 158.695312 67.390625 159.691406 62.5 L 215.121094 62.5 C 216.117188 67.390625 219.96875 71.25 224.855469 72.246094 L 224.855469 85.253906 C 219.96875 86.25 216.117188 90.105469 215.121094 95 L 174.921875 95 L 174.921875 91.25 C 174.921875 86.425781 171.003906 82.5 166.1875 82.5 C 161.71875 82.5 158.070312 85.886719 157.554688 90.222656 Z M 122.496094 62.5 L 134.980469 62.5 L 134.980469 107.5 C 134.980469 108.875 136.101562 110 137.476562 110 L 157.449219 110 L 157.449219 117.5 C 157.449219 117.839844 157.515625 118.171875 157.652344 118.484375 L 164.9375 135.515625 L 164.9375 145 L 154.953125 145 C 153.578125 145 152.453125 146.121094 152.453125 147.5 L 152.453125 185 C 152.453125 186.375 153.578125 187.5 154.953125 187.5 L 214.867188 187.5 C 216.242188 187.5 217.363281 186.375 217.363281 185 L 217.363281 147.5 C 217.363281 146.121094 216.242188 145 214.867188 145 L 209.875 145 L 209.875 136.484375 C 216.066406 132.773438 219.859375 126.140625 219.859375 118.816406 L 219.859375 110 L 237.335938 110 C 238.710938 110 239.832031 108.875 239.832031 107.5 L 239.832031 62.5 L 252.316406 62.5 C 253.691406 62.5 254.8125 61.375 254.8125 60 L 254.8125 40 C 254.8125 38.621094 253.691406 37.5 252.316406 37.5 L 122.496094 37.5 C 121.121094 37.5 120 38.621094 120 40 L 120 60 C 120 61.375 121.121094 62.5 122.496094 62.5 " fill-opacity="1" fill-rule="nonzero"/></g><path fill="#100f0d" d="M 186.15625 72.5 C 189.601562 72.5 192.398438 75.300781 192.398438 78.75 C 192.398438 82.195312 189.601562 85 186.15625 85 C 182.714844 85 179.917969 82.195312 179.917969 78.75 C 179.917969 75.300781 182.714844 72.5 186.15625 72.5 Z M 186.15625 90 C 192.351562 90 197.390625 84.949219 197.390625 78.75 C 197.390625 72.546875 192.351562 67.5 186.15625 67.5 C 179.964844 67.5 174.921875 72.546875 174.921875 78.75 C 174.921875 84.949219 179.964844 90 186.15625 90 " fill-opacity="1" fill-rule="nonzero"/><path fill="#100f0d" d="M 166.1875 175 C 168.253906 175 169.929688 173.320312 169.929688 171.25 C 169.929688 169.179688 168.253906 167.5 166.1875 167.5 C 164.117188 167.5 162.441406 169.179688 162.441406 171.25 C 162.441406 173.320312 164.117188 175 166.1875 175 " fill-opacity="1" fill-rule="nonzero"/><g fill="#004aad" fill-opacity="1"><g transform="translate(56.414062, 285.197326)"><g><path d="M 9.359375 -12.546875 L 9.359375 -4.734375 L 22.984375 -4.734375 L 22.984375 0 L 3.71875 0 L 3.71875 -28.5625 L 22.671875 -28.5625 L 22.671875 -23.828125 L 9.359375 -23.828125 L 9.359375 -17.15625 L 21 -17.15625 L 21 -12.546875 Z M 9.359375 -12.546875 "/></g></g></g><g fill="#004aad" fill-opacity="1"><g transform="translate(80.96245, 285.197326)"><g><path d="M 8.40625 0.40625 C 7.019531 0.40625 5.816406 0.15625 4.796875 -0.34375 C 3.785156 -0.851562 3.003906 -1.597656 2.453125 -2.578125 C 1.910156 -3.566406 1.640625 -4.753906 1.640625 -6.140625 C 1.640625 -7.410156 1.910156 -8.476562 2.453125 -9.34375 C 3.003906 -10.207031 3.851562 -10.914062 5 -11.46875 C 6.144531 -12.03125 7.644531 -12.457031 9.5 -12.75 C 10.78125 -12.957031 11.753906 -13.1875 12.421875 -13.4375 C 13.097656 -13.6875 13.550781 -13.96875 13.78125 -14.28125 C 14.019531 -14.59375 14.140625 -14.988281 14.140625 -15.46875 C 14.140625 -16.15625 13.898438 -16.679688 13.421875 -17.046875 C 12.941406 -17.410156 12.140625 -17.59375 11.015625 -17.59375 C 9.816406 -17.59375 8.675781 -17.328125 7.59375 -16.796875 C 6.519531 -16.265625 5.582031 -15.5625 4.78125 -14.6875 L 4.390625 -14.6875 L 2.125 -18.109375 C 3.21875 -19.316406 4.550781 -20.257812 6.125 -20.9375 C 7.707031 -21.613281 9.429688 -21.953125 11.296875 -21.953125 C 14.140625 -21.953125 16.195312 -21.347656 17.46875 -20.140625 C 18.75 -18.929688 19.390625 -17.210938 19.390625 -14.984375 L 19.390625 -5.625 C 19.390625 -4.664062 19.816406 -4.1875 20.671875 -4.1875 C 20.992188 -4.1875 21.3125 -4.242188 21.625 -4.359375 L 21.890625 -4.28125 L 22.28125 -0.515625 C 21.988281 -0.316406 21.570312 -0.15625 21.03125 -0.03125 C 20.5 0.09375 19.914062 0.15625 19.28125 0.15625 C 17.988281 0.15625 16.976562 -0.0859375 16.25 -0.578125 C 15.53125 -1.078125 15.015625 -1.851562 14.703125 -2.90625 L 14.296875 -2.953125 C 13.242188 -0.710938 11.28125 0.40625 8.40625 0.40625 Z M 10.125 -3.640625 C 11.375 -3.640625 12.367188 -4.054688 13.109375 -4.890625 C 13.859375 -5.734375 14.234375 -6.90625 14.234375 -8.40625 L 14.234375 -10.59375 L 13.875 -10.671875 C 13.539062 -10.410156 13.109375 -10.191406 12.578125 -10.015625 C 12.054688 -9.835938 11.300781 -9.664062 10.3125 -9.5 C 9.144531 -9.300781 8.300781 -8.960938 7.78125 -8.484375 C 7.269531 -8.015625 7.015625 -7.34375 7.015625 -6.46875 C 7.015625 -5.539062 7.285156 -4.835938 7.828125 -4.359375 C 8.378906 -3.878906 9.144531 -3.640625 10.125 -3.640625 Z M 10.125 -3.640625 "/></g></g></g><g fill="#004aad" fill-opacity="1"><g transform="translate(103.67508, 285.197326)"><g><path d="M 10.078125 0.40625 C 8.609375 0.40625 7.257812 0.234375 6.03125 -0.109375 C 4.8125 -0.453125 3.769531 -0.925781 2.90625 -1.53125 C 2.039062 -2.132812 1.398438 -2.828125 0.984375 -3.609375 L 3.984375 -6.859375 L 4.390625 -6.859375 C 5.109375 -5.890625 5.957031 -5.164062 6.9375 -4.6875 C 7.914062 -4.207031 8.976562 -3.96875 10.125 -3.96875 C 11.175781 -3.96875 11.96875 -4.15625 12.5 -4.53125 C 13.03125 -4.90625 13.296875 -5.445312 13.296875 -6.15625 C 13.296875 -6.695312 13.101562 -7.15625 12.71875 -7.53125 C 12.34375 -7.90625 11.722656 -8.195312 10.859375 -8.40625 L 8.015625 -9.078125 C 5.878906 -9.585938 4.316406 -10.363281 3.328125 -11.40625 C 2.347656 -12.457031 1.859375 -13.789062 1.859375 -15.40625 C 1.859375 -16.75 2.195312 -17.914062 2.875 -18.90625 C 3.5625 -19.894531 4.523438 -20.648438 5.765625 -21.171875 C 7.015625 -21.691406 8.46875 -21.953125 10.125 -21.953125 C 12.0625 -21.953125 13.664062 -21.671875 14.9375 -21.109375 C 16.21875 -20.554688 17.21875 -19.8125 17.9375 -18.875 L 15.046875 -15.75 L 14.65625 -15.75 C 14.050781 -16.425781 13.375 -16.921875 12.625 -17.234375 C 11.875 -17.546875 11.039062 -17.703125 10.125 -17.703125 C 7.988281 -17.703125 6.921875 -17.035156 6.921875 -15.703125 C 6.921875 -15.140625 7.117188 -14.679688 7.515625 -14.328125 C 7.910156 -13.984375 8.609375 -13.703125 9.609375 -13.484375 L 12.265625 -12.890625 C 14.453125 -12.421875 16.050781 -11.664062 17.0625 -10.625 C 18.070312 -9.59375 18.578125 -8.207031 18.578125 -6.46875 C 18.578125 -5.101562 18.238281 -3.898438 17.5625 -2.859375 C 16.882812 -1.816406 15.90625 -1.007812 14.625 -0.4375 C 13.351562 0.125 11.835938 0.40625 10.078125 0.40625 Z M 10.078125 0.40625 "/></g></g></g><g fill="#004aad" fill-opacity="1"><g transform="translate(123.536425, 285.197326)"><g><path d="M 4.765625 9.140625 C 3.835938 9.140625 3 9.066406 2.25 8.921875 C 1.507812 8.785156 0.90625 8.597656 0.4375 8.359375 L 1.296875 3.984375 L 1.640625 3.875 C 1.960938 4.039062 2.363281 4.175781 2.84375 4.28125 C 3.332031 4.382812 3.832031 4.4375 4.34375 4.4375 C 5.207031 4.4375 5.929688 4.320312 6.515625 4.09375 C 7.097656 3.863281 7.585938 3.484375 7.984375 2.953125 C 8.390625 2.429688 8.75 1.703125 9.0625 0.765625 L 0.46875 -21.546875 L 6.140625 -21.546875 L 11.484375 -6.5625 L 11.953125 -6.5625 L 17.171875 -21.546875 L 22.671875 -21.546875 L 14.03125 1.34375 C 13.332031 3.195312 12.570312 4.6875 11.75 5.8125 C 10.925781 6.9375 9.945312 7.769531 8.8125 8.3125 C 7.6875 8.863281 6.335938 9.140625 4.765625 9.140625 Z M 4.765625 9.140625 "/></g></g></g><g fill="#004aad" fill-opacity="1"><g transform="translate(146.659165, 285.197326)"><g/></g></g><g fill="#004aad" fill-opacity="1"><g transform="translate(156.091843, 285.197326)"><g><path d="M 15.609375 0.40625 C 12.972656 0.40625 10.648438 -0.140625 8.640625 -1.234375 C 6.640625 -2.328125 5.070312 -3.96875 3.9375 -6.15625 C 2.8125 -8.351562 2.25 -11.0625 2.25 -14.28125 C 2.25 -17.5 2.8125 -20.203125 3.9375 -22.390625 C 5.070312 -24.585938 6.640625 -26.234375 8.640625 -27.328125 C 10.648438 -28.421875 12.972656 -28.96875 15.609375 -28.96875 C 18.359375 -28.96875 20.691406 -28.429688 22.609375 -27.359375 C 24.523438 -26.285156 25.894531 -24.644531 26.71875 -22.4375 L 22.59375 -19.921875 L 22.109375 -19.9375 C 21.492188 -21.425781 20.660156 -22.492188 19.609375 -23.140625 C 18.566406 -23.785156 17.234375 -24.109375 15.609375 -24.109375 C 13.234375 -24.109375 11.378906 -23.320312 10.046875 -21.75 C 8.722656 -20.175781 8.0625 -17.6875 8.0625 -14.28125 C 8.0625 -10.882812 8.722656 -8.398438 10.046875 -6.828125 C 11.378906 -5.253906 13.234375 -4.46875 15.609375 -4.46875 C 19.316406 -4.46875 21.585938 -6.273438 22.421875 -9.890625 L 22.90625 -9.890625 L 27.078125 -7.71875 C 26.296875 -5.007812 24.957031 -2.976562 23.0625 -1.625 C 21.175781 -0.269531 18.691406 0.40625 15.609375 0.40625 Z M 15.609375 0.40625 "/></g></g></g><g fill="#004aad" fill-opacity="1"><g transform="translate(184.096918, 285.197326)"><g><path d="M 8.40625 0.40625 C 7.019531 0.40625 5.816406 0.15625 4.796875 -0.34375 C 3.785156 -0.851562 3.003906 -1.597656 2.453125 -2.578125 C 1.910156 -3.566406 1.640625 -4.753906 1.640625 -6.140625 C 1.640625 -7.410156 1.910156 -8.476562 2.453125 -9.34375 C 3.003906 -10.207031 3.851562 -10.914062 5 -11.46875 C 6.144531 -12.03125 7.644531 -12.457031 9.5 -12.75 C 10.78125 -12.957031 11.753906 -13.1875 12.421875 -13.4375 C 13.097656 -13.6875 13.550781 -13.96875 13.78125 -14.28125 C 14.019531 -14.59375 14.140625 -14.988281 14.140625 -15.46875 C 14.140625 -16.15625 13.898438 -16.679688 13.421875 -17.046875 C 12.941406 -17.410156 12.140625 -17.59375 11.015625 -17.59375 C 9.816406 -17.59375 8.675781 -17.328125 7.59375 -16.796875 C 6.519531 -16.265625 5.582031 -15.5625 4.78125 -14.6875 L 4.390625 -14.6875 L 2.125 -18.109375 C 3.21875 -19.316406 4.550781 -20.257812 6.125 -20.9375 C 7.707031 -21.613281 9.429688 -21.953125 11.296875 -21.953125 C 14.140625 -21.953125 16.195312 -21.347656 17.46875 -20.140625 C 18.75 -18.929688 19.390625 -17.210938 19.390625 -14.984375 L 19.390625 -5.625 C 19.390625 -4.664062 19.816406 -4.1875 20.671875 -4.1875 C 20.992188 -4.1875 21.3125 -4.242188 21.625 -4.359375 L 21.890625 -4.28125 L 22.28125 -0.515625 C 21.988281 -0.316406 21.570312 -0.15625 21.03125 -0.03125 C 20.5 0.09375 19.914062 0.15625 19.28125 0.15625 C 17.988281 0.15625 16.976562 -0.0859375 16.25 -0.578125 C 15.53125 -1.078125 15.015625 -1.851562 14.703125 -2.90625 L 14.296875 -2.953125 C 13.242188 -0.710938 11.28125 0.40625 8.40625 0.40625 Z M 10.125 -3.640625 C 11.375 -3.640625 12.367188 -4.054688 13.109375 -4.890625 C 13.859375 -5.734375 14.234375 -6.90625 14.234375 -8.40625 L 14.234375 -10.59375 L 13.875 -10.671875 C 13.539062 -10.410156 13.109375 -10.191406 12.578125 -10.015625 C 12.054688 -9.835938 11.300781 -9.664062 10.3125 -9.5 C 9.144531 -9.300781 8.300781 -8.960938 7.78125 -8.484375 C 7.269531 -8.015625 7.015625 -7.34375 7.015625 -6.46875 C 7.015625 -5.539062 7.285156 -4.835938 7.828125 -4.359375 C 8.378906 -3.878906 9.144531 -3.640625 10.125 -3.640625 Z M 10.125 -3.640625 "/></g></g></g><g fill="#004aad" fill-opacity="1"><g transform="translate(206.809548, 285.197326)"><g><path d="M 10.078125 0.40625 C 8.609375 0.40625 7.257812 0.234375 6.03125 -0.109375 C 4.8125 -0.453125 3.769531 -0.925781 2.90625 -1.53125 C 2.039062 -2.132812 1.398438 -2.828125 0.984375 -3.609375 L 3.984375 -6.859375 L 4.390625 -6.859375 C 5.109375 -5.890625 5.957031 -5.164062 6.9375 -4.6875 C 7.914062 -4.207031 8.976562 -3.96875 10.125 -3.96875 C 11.175781 -3.96875 11.96875 -4.15625 12.5 -4.53125 C 13.03125 -4.90625 13.296875 -5.445312 13.296875 -6.15625 C 13.296875 -6.695312 13.101562 -7.15625 12.71875 -7.53125 C 12.34375 -7.90625 11.722656 -8.195312 10.859375 -8.40625 L 8.015625 -9.078125 C 5.878906 -9.585938 4.316406 -10.363281 3.328125 -11.40625 C 2.347656 -12.457031 1.859375 -13.789062 1.859375 -15.40625 C 1.859375 -16.75 2.195312 -17.914062 2.875 -18.90625 C 3.5625 -19.894531 4.523438 -20.648438 5.765625 -21.171875 C 7.015625 -21.691406 8.46875 -21.953125 10.125 -21.953125 C 12.0625 -21.953125 13.664062 -21.671875 14.9375 -21.109375 C 16.21875 -20.554688 17.21875 -19.8125 17.9375 -18.875 L 15.046875 -15.75 L 14.65625 -15.75 C 14.050781 -16.425781 13.375 -16.921875 12.625 -17.234375 C 11.875 -17.546875 11.039062 -17.703125 10.125 -17.703125 C 7.988281 -17.703125 6.921875 -17.035156 6.921875 -15.703125 C 6.921875 -15.140625 7.117188 -14.679688 7.515625 -14.328125 C 7.910156 -13.984375 8.609375 -13.703125 9.609375 -13.484375 L 12.265625 -12.890625 C 14.453125 -12.421875 16.050781 -11.664062 17.0625 -10.625 C 18.070312 -9.59375 18.578125 -8.207031 18.578125 -6.46875 C 18.578125 -5.101562 18.238281 -3.898438 17.5625 -2.859375 C 16.882812 -1.816406 15.90625 -1.007812 14.625 -0.4375 C 13.351562 0.125 11.835938 0.40625 10.078125 0.40625 Z M 10.078125 0.40625 "/></g></g></g><g fill="#004aad" fill-opacity="1"><g transform="translate(226.670894, 285.197326)"><g><path d="M 3.109375 0 L 3.109375 -30.203125 L 8.515625 -30.203125 L 8.515625 -18.734375 L 8.921875 -18.65625 C 9.640625 -19.707031 10.519531 -20.519531 11.5625 -21.09375 C 12.601562 -21.664062 13.859375 -21.953125 15.328125 -21.953125 C 20.085938 -21.953125 22.46875 -19.257812 22.46875 -13.875 L 22.46875 0 L 17.046875 0 L 17.046875 -13.1875 C 17.046875 -14.65625 16.753906 -15.722656 16.171875 -16.390625 C 15.585938 -17.054688 14.675781 -17.390625 13.4375 -17.390625 C 11.925781 -17.390625 10.726562 -16.882812 9.84375 -15.875 C 8.957031 -14.863281 8.515625 -13.289062 8.515625 -11.15625 L 8.515625 0 Z M 3.109375 0 "/></g></g></g><g fill="#004aad" fill-opacity="1"><g transform="translate(251.902803, 285.197326)"><g><path d="M 12.515625 0.40625 C 10.410156 0.40625 8.5625 -0.0234375 6.96875 -0.890625 C 5.375 -1.753906 4.132812 -3.019531 3.25 -4.6875 C 2.375 -6.363281 1.9375 -8.390625 1.9375 -10.765625 C 1.9375 -13.128906 2.375 -15.148438 3.25 -16.828125 C 4.132812 -18.515625 5.375 -19.789062 6.96875 -20.65625 C 8.5625 -21.519531 10.410156 -21.953125 12.515625 -21.953125 C 14.628906 -21.953125 16.484375 -21.519531 18.078125 -20.65625 C 19.671875 -19.789062 20.910156 -18.515625 21.796875 -16.828125 C 22.679688 -15.148438 23.125 -13.128906 23.125 -10.765625 C 23.125 -8.390625 22.679688 -6.363281 21.796875 -4.6875 C 20.910156 -3.019531 19.671875 -1.753906 18.078125 -0.890625 C 16.484375 -0.0234375 14.628906 0.40625 12.515625 0.40625 Z M 12.515625 -4.1875 C 15.867188 -4.1875 17.546875 -6.378906 17.546875 -10.765625 C 17.546875 -13.046875 17.113281 -14.710938 16.25 -15.765625 C 15.394531 -16.828125 14.148438 -17.359375 12.515625 -17.359375 C 9.171875 -17.359375 7.5 -15.160156 7.5 -10.765625 C 7.5 -6.378906 9.171875 -4.1875 12.515625 -4.1875 Z M 12.515625 -4.1875 "/></g></g></g><g fill="#004aad" fill-opacity="1"><g transform="translate(276.939407, 285.197326)"><g><path d="M 9.859375 0.40625 C 7.441406 0.40625 5.65625 -0.253906 4.5 -1.578125 C 3.351562 -2.898438 2.78125 -4.796875 2.78125 -7.265625 L 2.78125 -21.546875 L 8.1875 -21.546875 L 8.1875 -7.953125 C 8.1875 -6.640625 8.46875 -5.675781 9.03125 -5.0625 C 9.601562 -4.457031 10.476562 -4.15625 11.65625 -4.15625 C 13.15625 -4.15625 14.320312 -4.644531 15.15625 -5.625 C 15.988281 -6.613281 16.40625 -8.164062 16.40625 -10.28125 L 16.40625 -21.546875 L 21.8125 -21.546875 L 21.8125 0 L 16.625 0 L 16.625 -3.171875 L 16.21875 -3.265625 C 15.519531 -2.023438 14.671875 -1.101562 13.671875 -0.5 C 12.679688 0.101562 11.410156 0.40625 9.859375 0.40625 Z M 9.859375 0.40625 "/></g></g></g><g fill="#004aad" fill-opacity="1"><g transform="translate(301.858847, 285.197326)"><g><path d="M 14.859375 -5.140625 L 16.265625 -1.140625 C 15.679688 -0.648438 14.945312 -0.269531 14.0625 0 C 13.175781 0.269531 12.175781 0.40625 11.0625 0.40625 C 8.726562 0.40625 6.953125 -0.226562 5.734375 -1.5 C 4.523438 -2.769531 3.921875 -4.613281 3.921875 -7.03125 L 3.921875 -17.265625 L 0.640625 -17.265625 L 0.640625 -21.5625 L 3.921875 -21.5625 L 3.921875 -25.765625 L 9.34375 -26.640625 L 9.34375 -21.5625 L 15.453125 -21.5625 L 15.453125 -17.265625 L 9.34375 -17.265625 L 9.34375 -7.421875 C 9.34375 -6.359375 9.5625 -5.582031 10 -5.09375 C 10.445312 -4.601562 11.09375 -4.359375 11.9375 -4.359375 C 12.894531 -4.359375 13.734375 -4.617188 14.453125 -5.140625 Z M 14.859375 -5.140625 "/></g></g></g></svg>