<svg xmlns="http://www.w3.org/2000/svg" xmlns:xlink="http://www.w3.org/1999/xlink" width="500" zoomAndPan="magnify" viewBox="0 0 375 374.999991" height="500" preserveAspectRatio="xMidYMid meet" version="1.0"><defs><clipPath id="39884c347e"><path d="M 222 37.5 L 262.5 37.5 L 262.5 84 L 222 84 Z M 222 37.5 " clip-rule="nonzero"/></clipPath><clipPath id="447cb9f6d7"><path d="M 44 245 L 351.75 245 L 351.75 331.210938 L 44 331.210938 Z M 44 245 " clip-rule="nonzero"/></clipPath><clipPath id="5417934178"><path d="M 37.5 235.210938 L 346 235.210938 L 346 322 L 37.5 322 Z M 37.5 235.210938 " clip-rule="nonzero"/></clipPath></defs><rect x="-37.5" width="450" fill="#ffffff" y="-37.499999" height="449.999989" fill-opacity="1"/><rect x="-37.5" width="450" fill="#ffffff" y="-37.499999" height="449.999989" fill-opacity="1"/><path fill="#0cc0df" d="M 206.726562 186 C 200.824219 187.148438 195.101562 183.277344 193.964844 177.375 L 193.453125 174.707031 L 192.265625 168.445312 L 214.042969 165.722656 L 214.828125 170.570312 L 215.351562 173.25 C 216.488281 179.152344 212.628906 184.863281 206.726562 186 " fill-opacity="1" fill-rule="nonzero"/><path fill="#5ce1e6" d="M 197.878906 68.484375 L 171.144531 73.652344 L 170.113281 68.3125 C 168.6875 60.933594 173.515625 53.789062 180.894531 52.363281 C 188.277344 50.9375 195.410156 55.765625 196.835938 63.144531 L 197.878906 68.484375 " fill-opacity="1" fill-rule="nonzero"/><path fill="#0097b2" d="M 257.601562 162.308594 L 148.015625 183.492188 L 148.3125 182.832031 C 154.460938 169.410156 156.257812 154.40625 153.449219 139.914062 L 149.492188 119.429688 C 144.933594 95.8125 160.371094 72.960938 183.992188 68.398438 C 207.609375 63.835938 230.460938 79.277344 235.023438 102.894531 L 239.722656 127.203125 C 242.0625 139.296875 247.519531 150.578125 255.546875 159.925781 L 257.601562 162.308594 " fill-opacity="1" fill-rule="nonzero"/><path fill="#38b6ff" d="M 251.113281 81.222656 L 245.765625 80.160156 C 246.050781 78.734375 246.1875 77.300781 246.1875 75.882812 C 246.1875 63.878906 236.425781 54.105469 224.410156 54.105469 C 224.082031 54.105469 223.75 54.128906 223.421875 54.160156 L 223.058594 54.179688 L 222.71875 48.746094 L 223.050781 48.726562 C 223.496094 48.695312 223.953125 48.660156 224.410156 48.660156 C 239.425781 48.660156 251.632812 60.871094 251.632812 75.882812 C 251.632812 77.660156 251.464844 79.445312 251.113281 81.222656 " fill-opacity="1" fill-rule="nonzero"/><g clip-path="url(#39884c347e)"><path fill="#38b6ff" d="M 261.789062 83.351562 L 256.441406 82.285156 C 256.867188 80.171875 257.078125 78.011719 257.078125 75.882812 C 257.078125 57.871094 242.425781 43.21875 224.410156 43.21875 C 223.910156 43.21875 223.421875 43.257812 222.933594 43.292969 L 222.378906 43.324219 L 222.039062 37.890625 L 222.550781 37.855469 C 223.167969 37.816406 223.785156 37.773438 224.410156 37.773438 C 245.433594 37.773438 262.523438 54.871094 262.523438 75.882812 C 262.523438 78.363281 262.277344 80.882812 261.789062 83.351562 " fill-opacity="1" fill-rule="nonzero"/></g><path fill="#38b6ff" d="M 240.425781 79.085938 L 235.085938 78.023438 C 235.226562 77.300781 235.300781 76.585938 235.300781 75.882812 C 235.300781 69.875 230.417969 64.996094 224.410156 64.996094 C 224.113281 65.039062 223.933594 65.058594 223.75 65.082031 L 223.390625 59.636719 C 223.835938 59.582031 224.125 59.550781 224.410156 59.550781 C 233.417969 59.550781 240.746094 66.878906 240.746094 75.882812 C 240.746094 76.9375 240.636719 78.011719 240.425781 79.085938 " fill-opacity="1" fill-rule="nonzero"/><path fill="#38b6ff" d="M 128.152344 100.320312 C 127.257812 98.757812 126.511719 97.109375 125.960938 95.441406 C 121.1875 81.203125 128.894531 65.75 143.125 60.988281 C 143.570312 60.828125 144.015625 60.710938 144.464844 60.605469 L 144.761719 60.519531 L 146.164062 65.78125 L 145.824219 65.867188 C 145.507812 65.953125 145.1875 66.039062 144.855469 66.144531 C 133.46875 69.960938 127.300781 82.320312 131.117188 93.707031 C 131.566406 95.046875 132.160156 96.367188 132.882812 97.632812 L 128.152344 100.320312 " fill-opacity="1" fill-rule="nonzero"/><path fill="#38b6ff" d="M 118.707031 105.746094 C 117.453125 103.554688 116.421875 101.246094 115.636719 98.898438 C 112.402344 89.242188 113.113281 78.90625 117.65625 69.800781 C 122.195312 60.6875 130.011719 53.882812 139.667969 50.648438 C 140.285156 50.449219 140.890625 50.289062 141.507812 50.128906 L 141.964844 50.011719 L 143.359375 55.277344 L 142.878906 55.394531 C 142.378906 55.53125 141.890625 55.660156 141.402344 55.816406 C 133.128906 58.59375 126.417969 64.410156 122.535156 72.226562 C 118.644531 80.03125 118.027344 88.890625 120.792969 97.164062 C 121.460938 99.183594 122.355469 101.160156 123.429688 103.042969 L 118.707031 105.746094 " fill-opacity="1" fill-rule="nonzero"/><path fill="#38b6ff" d="M 137.605469 94.910156 C 137.0625 93.972656 136.617188 92.984375 136.277344 91.972656 C 133.425781 83.445312 138.039062 74.160156 146.578125 71.3125 C 146.855469 71.214844 147.144531 71.152344 147.421875 71.097656 L 148.984375 76.332031 C 148.800781 76.375 148.609375 76.417969 148.429688 76.449219 C 142.625 78.375 139.539062 84.5625 141.445312 90.25 C 141.667969 90.910156 141.964844 91.570312 142.328125 92.207031 L 137.605469 94.910156 " fill-opacity="1" fill-rule="nonzero"/><path fill="#004aad" d="M 167.304688 169.953125 L 162.777344 166.933594 C 165.882812 162.277344 166.988281 156.683594 165.890625 151.183594 L 165.09375 147.195312 L 170.433594 146.132812 L 171.230469 150.121094 C 172.613281 157.035156 171.21875 164.082031 167.304688 169.953125 " fill-opacity="1" fill-rule="nonzero"/><g clip-path="url(#447cb9f6d7)"><path fill="#bcbec0" d="M 349.050781 273.519531 C 347.539062 270.328125 345.203125 267.339844 342.101562 264.625 C 342.050781 264.578125 341.996094 264.535156 341.941406 264.488281 C 340.59375 263.378906 339.054688 262.308594 337.476562 261.386719 C 335.332031 260.046875 333.085938 259.277344 331.144531 258.65625 C 331.109375 258.640625 331.074219 258.632812 331.035156 258.621094 C 327.335938 257.503906 323.9375 256.886719 320.652344 256.742188 C 320.546875 256.738281 320.441406 256.734375 320.335938 256.734375 L 317.960938 256.734375 C 317.210938 256.734375 316.460938 256.75 315.703125 256.777344 C 314.148438 255.933594 312.394531 255.480469 310.566406 255.480469 L 310.105469 255.480469 C 309.847656 255.480469 309.582031 255.496094 309.324219 255.523438 C 307.082031 255.773438 304.953125 256.707031 303.175781 258.203125 C 302.882812 257.980469 302.621094 257.792969 302.40625 257.636719 C 302.40625 257.636719 302.304688 257.566406 302.285156 257.554688 C 300.992188 256.648438 299.773438 256.054688 298.355469 255.648438 C 296.566406 255.085938 294.984375 255.019531 293.933594 255.019531 C 293.316406 255.019531 292.476562 255.019531 291.542969 255.144531 C 287.949219 255.605469 284.503906 257.246094 281.011719 260.160156 C 280.996094 260.171875 280.980469 260.183594 280.964844 260.195312 C 277.003906 263.554688 273.644531 268.003906 271.160156 273.152344 C 269.5 270.566406 267.570312 268.183594 265.46875 266.136719 C 261.945312 262.707031 258.316406 260.167969 254.6875 258.597656 C 253.027344 257.84375 251.285156 257.324219 249.332031 257.019531 C 249.324219 257.011719 249.320312 257.007812 249.3125 257 C 249.222656 256.894531 249.125 256.796875 249.027344 256.695312 C 246.964844 254.632812 244.269531 253.5 241.441406 253.5 C 241.089844 253.5 240.363281 253.5 239.457031 253.714844 C 236.765625 254.195312 234.363281 255.636719 232.585938 257.648438 C 230.878906 256.121094 228.632812 255.214844 226.191406 255.214844 C 224.957031 255.214844 223.738281 255.453125 222.570312 255.917969 C 220.199219 256.867188 218.253906 258.652344 217.097656 260.941406 C 216.101562 262.90625 215.71875 265.128906 215.988281 267.367188 C 215.992188 267.398438 215.992188 267.425781 215.996094 267.453125 C 216.289062 269.660156 216.535156 271.972656 216.769531 274.207031 C 216.796875 274.441406 216.820312 274.679688 216.847656 274.917969 C 216.847656 274.917969 215.886719 273.300781 215.875 273.277344 C 214.53125 271.066406 213.050781 268.992188 211.90625 267.425781 C 210.566406 265.589844 208.71875 263.238281 206.320312 261.320312 C 206.265625 261.277344 206.207031 261.230469 206.148438 261.1875 C 206.019531 261.089844 205.878906 260.988281 205.734375 260.890625 C 205.273438 260.480469 204.761719 260.132812 204.207031 259.859375 C 202.707031 259.109375 201.140625 258.730469 199.542969 258.730469 C 199.023438 258.730469 198.496094 258.769531 197.972656 258.851562 C 197.707031 258.886719 197.4375 258.9375 197.175781 258.992188 C 197.21875 258.800781 197.246094 258.636719 197.269531 258.515625 C 197.375 258.023438 197.429688 257.523438 197.429688 257.019531 C 197.429688 256.3125 197.34375 255.699219 197.25 255.222656 C 197.167969 252.601562 195.933594 250.058594 193.882812 248.335938 C 193.199219 247.660156 192.402344 247.089844 191.53125 246.652344 C 191.410156 246.59375 191.28125 246.53125 191.152344 246.480469 C 189.839844 245.914062 188.496094 245.644531 187.042969 245.644531 C 184.167969 245.644531 181.382812 246.847656 179.191406 249.039062 C 179.125 249.105469 179.0625 249.171875 178.996094 249.242188 C 177.140625 251.253906 175.980469 254.054688 175.808594 256.933594 C 175.800781 257.074219 175.796875 257.210938 175.796875 257.351562 C 175.796875 258.300781 175.917969 259.242188 176.144531 260.144531 C 175.285156 259.578125 174.433594 259.160156 173.726562 258.867188 C 173.566406 258.800781 173.402344 258.738281 173.242188 258.683594 C 171.675781 258.164062 170.140625 257.90625 168.550781 257.90625 C 168.234375 257.90625 167.910156 257.917969 167.585938 257.9375 C 167.566406 257.9375 167.546875 257.941406 167.527344 257.941406 C 164.78125 258.136719 162.710938 259.457031 161.714844 260.089844 C 161.28125 260.367188 160.875 260.691406 160.511719 261.058594 C 160.464844 261.105469 160.328125 261.230469 160.226562 261.320312 C 160.007812 261.515625 159.738281 261.761719 159.453125 262.046875 L 158.214844 263.285156 C 157.171875 264.273438 156.421875 265.292969 155.816406 266.117188 C 155.636719 266.363281 155.46875 266.59375 155.328125 266.773438 C 155.28125 266.832031 155.230469 266.898438 155.183594 266.960938 C 154.320312 268.136719 153.527344 269.300781 152.824219 270.421875 C 152.453125 270.988281 152.09375 271.5625 151.75 272.136719 C 151.75 272.136719 150.75 268.9375 150.746094 268.925781 C 150.183594 267.167969 149.558594 265.363281 148.933594 263.699219 C 148.089844 261.335938 147.007812 259.324219 146.050781 257.542969 C 146.050781 257.542969 145.816406 257.097656 145.8125 257.09375 C 144.050781 253.828125 140.644531 251.71875 137.128906 251.71875 C 136.792969 251.71875 136.457031 251.742188 136.125 251.789062 L 135.664062 251.855469 C 135.195312 251.921875 134.734375 252.035156 134.289062 252.195312 C 132.769531 252.464844 131.363281 253.046875 130.105469 253.933594 C 128.097656 255.253906 126.96875 256.945312 126.28125 257.972656 C 125.980469 258.425781 125.734375 258.910156 125.542969 259.417969 C 125.503906 259.523438 125.460938 259.625 125.421875 259.722656 C 124.542969 258.769531 123.5625 258.070312 122.957031 257.636719 C 122.957031 257.636719 122.855469 257.566406 122.835938 257.554688 C 121.542969 256.648438 120.324219 256.054688 118.90625 255.648438 C 117.117188 255.085938 115.53125 255.019531 114.480469 255.019531 C 113.867188 255.019531 113.027344 255.019531 112.09375 255.144531 C 108.5 255.605469 105.054688 257.246094 101.5625 260.160156 C 101.546875 260.171875 101.53125 260.183594 101.515625 260.199219 C 98.171875 263.03125 95.257812 266.644531 92.933594 270.796875 C 92.550781 269.703125 92.058594 268.582031 91.457031 267.417969 C 90.109375 264.828125 88.136719 262.527344 85.75 260.765625 C 85.734375 260.753906 85.722656 260.742188 85.707031 260.734375 C 85.59375 260.652344 85.484375 260.570312 85.375 260.488281 C 84.683594 259.976562 83.828125 259.34375 82.71875 258.769531 C 81.410156 258.042969 80.152344 257.683594 79.304688 257.441406 C 79.167969 257.402344 79.03125 257.363281 78.894531 257.320312 C 76.507812 256.566406 74.199219 256.492188 72.34375 256.429688 C 72.152344 256.425781 71.957031 256.417969 71.765625 256.410156 C 71.675781 256.40625 71.589844 256.40625 71.503906 256.40625 L 71.371094 256.40625 C 69.011719 256.40625 66.835938 256.828125 65.085938 257.167969 L 64.636719 257.253906 C 63.019531 257.554688 61.511719 257.933594 60.054688 258.316406 L 59.816406 258.316406 C 59.429688 258.316406 59.039062 258.351562 58.652344 258.414062 C 57.28125 258.644531 56 259.070312 54.828125 259.691406 C 54.53125 259.773438 54.222656 259.851562 53.90625 259.933594 C 53.402344 260.066406 52.886719 260.199219 52.332031 260.351562 C 48.5625 261.378906 46.464844 264.527344 45.699219 265.925781 C 44.289062 268.4375 43.875 271.320312 44.53125 274.066406 C 45.054688 276.402344 46.285156 278.429688 48.054688 279.914062 L 47.980469 282.992188 C 47.980469 283.050781 47.980469 283.105469 47.980469 283.164062 C 47.980469 284.253906 48.050781 285.308594 48.113281 286.238281 C 48.140625 286.609375 48.164062 286.957031 48.183594 287.289062 C 48.253906 289.589844 48.386719 291.871094 48.515625 294.074219 C 48.613281 296.570312 48.898438 298.96875 49.171875 301.289062 C 49.300781 302.410156 49.425781 303.464844 49.527344 304.519531 C 49.539062 304.59375 49.546875 304.667969 49.554688 304.742188 L 49.660156 305.535156 C 49.625 306.292969 49.65625 307.054688 49.75 307.808594 C 49.785156 308.089844 49.835938 308.371094 49.90625 308.648438 C 50.003906 309.035156 50.121094 309.398438 50.242188 309.734375 C 50.335938 310.570312 50.464844 311.351562 50.582031 312.054688 C 50.59375 312.128906 50.609375 312.21875 50.621094 312.285156 C 50.625 312.628906 50.660156 312.976562 50.714844 313.316406 C 50.808594 313.871094 50.945312 314.675781 51.273438 315.589844 C 51.902344 317.507812 52.855469 318.847656 53.625 319.808594 C 53.6875 319.890625 53.757812 319.96875 53.824219 320.050781 C 55.21875 321.644531 57.105469 322.742188 59.269531 323.222656 C 59.445312 323.261719 59.625 323.292969 59.800781 323.320312 C 60.289062 323.386719 60.789062 323.421875 61.289062 323.421875 C 63.761719 323.421875 66.230469 322.5625 68.066406 321.0625 C 68.082031 321.046875 68.097656 321.035156 68.113281 321.019531 C 68.671875 320.558594 69.582031 319.800781 70.382812 318.667969 C 70.957031 317.894531 71.429688 317.078125 71.808594 316.238281 C 72.238281 316.207031 72.671875 316.175781 73.117188 316.144531 C 74.101562 316.074219 75.117188 316.003906 76.191406 315.890625 C 76.210938 315.890625 76.226562 315.886719 76.246094 315.886719 C 77.613281 315.734375 79.011719 315.585938 80.363281 315.441406 C 83.125 315.148438 85.980469 314.847656 88.824219 314.488281 C 91.222656 314.1875 93.371094 313.003906 94.972656 311.28125 C 95.179688 311.503906 95.390625 311.722656 95.605469 311.941406 C 98.445312 314.777344 101.910156 316.660156 105.632812 317.375 C 106.644531 317.582031 107.691406 317.691406 108.746094 317.691406 C 111.488281 317.691406 114.289062 317 117.296875 315.585938 C 117.394531 315.539062 117.488281 315.492188 117.582031 315.441406 C 118.238281 315.097656 118.84375 314.695312 119.398438 314.242188 C 119.785156 316.292969 120.738281 318.207031 122.171875 319.726562 C 124.171875 321.847656 126.871094 323.015625 129.78125 323.015625 C 130.179688 323.015625 130.582031 322.996094 130.984375 322.949219 C 136.632812 322.320312 141.148438 317.335938 141.492188 311.363281 C 141.492188 311.324219 141.496094 311.289062 141.496094 311.253906 C 141.527344 310.527344 141.558594 309.800781 141.589844 309.078125 C 142.761719 310.796875 144.417969 312.164062 146.519531 313.144531 C 147.878906 313.789062 149.324219 314.113281 150.820312 314.113281 C 154.617188 314.113281 158.238281 311.945312 160.277344 308.453125 C 160.351562 308.324219 160.425781 308.191406 160.496094 308.050781 C 160.757812 307.527344 161.039062 307.015625 161.339844 306.476562 C 161.363281 306.441406 161.378906 306.40625 161.398438 306.371094 C 162.292969 304.691406 162.785156 303.058594 163.117188 301.824219 C 163.382812 300.828125 163.582031 299.882812 163.757812 299.046875 L 163.785156 298.925781 C 163.777344 299.039062 163.777344 299.152344 163.777344 299.269531 C 163.777344 299.703125 163.722656 300.324219 163.675781 300.871094 C 163.667969 300.949219 163.660156 301.019531 163.65625 301.097656 L 163.65625 301.144531 C 163.578125 302.472656 163.480469 304.121094 163.820312 306.046875 C 163.835938 306.128906 163.851562 306.214844 163.867188 306.296875 C 164.871094 310.964844 168.882812 314.222656 173.632812 314.222656 C 174.441406 314.222656 175.246094 314.125 176.035156 313.933594 C 176.144531 316.265625 176.246094 318.597656 176.324219 320.902344 C 176.328125 320.980469 176.332031 321.054688 176.335938 321.128906 C 176.410156 322.195312 176.625 325.4375 179.175781 328.21875 C 179.242188 328.292969 179.316406 328.367188 179.386719 328.441406 C 181.328125 330.382812 183.964844 331.453125 186.8125 331.453125 C 187.0625 331.453125 187.324219 331.441406 187.578125 331.425781 C 187.710938 331.417969 187.847656 331.402344 187.984375 331.386719 C 190.78125 331.035156 193.382812 329.582031 195.304688 327.285156 C 197.179688 325.039062 198.167969 322.28125 198.082031 319.515625 C 198.082031 319.507812 198.082031 319.496094 198.082031 319.488281 C 198.074219 319.234375 198.066406 318.980469 198.054688 318.722656 C 198.742188 318.855469 199.445312 318.925781 200.164062 318.925781 C 200.589844 318.925781 201.019531 318.902344 201.441406 318.851562 C 204.21875 318.539062 206.859375 317.160156 208.882812 314.96875 C 209.011719 314.828125 209.132812 314.6875 209.25 314.539062 C 210.074219 313.488281 211.28125 311.652344 211.84375 309.320312 C 211.898438 309.398438 211.957031 309.476562 212.011719 309.554688 C 212.195312 309.824219 212.378906 310.097656 212.5625 310.371094 C 213.578125 311.875 214.625 313.425781 215.800781 314.96875 C 215.972656 315.265625 216.210938 315.671875 216.527344 316.109375 C 217.691406 317.894531 219.152344 319.246094 220.980469 320.230469 C 221.015625 320.25 221.046875 320.265625 221.078125 320.28125 C 222.585938 321.0625 224.226562 321.457031 225.957031 321.457031 C 227.6875 321.457031 229.59375 321.019531 231.429688 320.160156 C 232.074219 321.503906 233.011719 322.703125 234.199219 323.664062 C 236.042969 325.160156 238.363281 325.984375 240.734375 325.984375 C 241.121094 325.984375 241.515625 325.960938 241.902344 325.917969 C 243.683594 325.722656 245.375 325.085938 246.847656 324.101562 C 249.15625 323.964844 251.167969 323.386719 252.828125 322.914062 C 252.914062 322.890625 252.996094 322.863281 253.082031 322.835938 C 257.308594 321.457031 261.375 319.351562 264.839844 316.753906 C 264.910156 316.699219 264.976562 316.644531 265.046875 316.589844 C 266.578125 315.351562 268.160156 313.828125 269.75 312.058594 C 269.789062 312.015625 269.824219 311.972656 269.859375 311.929688 C 270.695312 310.957031 271.492188 309.875 272.269531 308.660156 C 273.109375 309.824219 274.039062 310.921875 275.054688 311.933594 C 277.894531 314.773438 281.359375 316.65625 285.082031 317.375 C 286.09375 317.582031 287.140625 317.6875 288.195312 317.6875 C 290.9375 317.6875 293.738281 317 296.746094 315.582031 C 296.84375 315.539062 296.9375 315.488281 297.03125 315.441406 C 298.648438 314.589844 299.976562 313.378906 300.9375 311.960938 C 301.054688 313.851562 301.21875 315.777344 301.507812 317.738281 C 301.507812 317.75 301.511719 317.761719 301.515625 317.777344 C 302.28125 322.757812 306.71875 326.511719 311.839844 326.511719 C 312.230469 326.511719 312.625 326.492188 313.015625 326.445312 C 316.300781 326.074219 319.273438 324.171875 321.148438 321.480469 C 321.835938 321.785156 322.496094 322.050781 323.097656 322.292969 C 323.503906 322.457031 323.886719 322.613281 324.253906 322.765625 C 324.363281 322.8125 324.472656 322.855469 324.582031 322.898438 C 325.898438 323.375 327.191406 323.78125 328.441406 324.179688 C 328.722656 324.265625 329.003906 324.355469 329.28125 324.441406 C 329.324219 324.457031 329.371094 324.472656 329.414062 324.484375 C 329.742188 324.582031 330.070312 324.679688 330.394531 324.773438 C 331.828125 325.203125 333.3125 325.644531 334.863281 326.050781 C 335.648438 326.265625 336.453125 326.375 337.265625 326.375 C 342.347656 326.375 346.085938 322.289062 347.070312 318.398438 C 347.730469 315.882812 347.449219 313.257812 346.292969 311.109375 C 345.386719 309.316406 344.082031 308.191406 342.9375 307.488281 C 342.953125 307.472656 342.96875 307.457031 342.984375 307.441406 C 345.71875 304.625 347.992188 301.070312 349.558594 297.160156 C 351.039062 293.496094 351.832031 289.703125 351.914062 285.882812 C 352 281.78125 351.0625 277.734375 349.050781 273.519531 Z M 329.9375 288.371094 C 329.832031 288.84375 329.714844 289.246094 329.574219 289.613281 C 329.257812 290.332031 328.964844 290.894531 328.667969 291.363281 C 328.164062 292.019531 327.621094 292.648438 327.050781 293.234375 C 326.0625 294.070312 324.90625 294.859375 323.34375 295.761719 C 323.089844 295.890625 322.832031 296.023438 322.570312 296.15625 C 322.570312 296.15625 322.46875 293.324219 322.46875 293.320312 C 322.335938 289.902344 322.183594 286.453125 322.035156 283.117188 C 322.003906 282.328125 321.96875 281.535156 321.933594 280.738281 C 322.777344 280.898438 323.605469 281.101562 324.414062 281.34375 C 325.457031 281.761719 326.410156 282.261719 327.308594 282.867188 C 327.980469 283.472656 328.542969 284.011719 329 284.550781 C 329.347656 285.128906 329.609375 285.609375 329.8125 286.046875 C 329.871094 286.3125 329.925781 286.644531 329.980469 287.015625 C 329.992188 287.398438 329.964844 287.867188 329.9375 288.371094 Z M 256.667969 294.699219 C 256.5625 295.203125 256.441406 295.628906 256.289062 296.019531 C 255.960938 296.757812 255.664062 297.332031 255.355469 297.808594 C 254.84375 298.5 254.21875 299.175781 253.632812 299.769531 C 253.101562 300.175781 252.59375 300.546875 252.089844 300.878906 C 252.089844 300.871094 252.089844 300.863281 252.089844 300.855469 C 252.089844 297.082031 252.152344 293.421875 252.21875 289.546875 C 252.21875 289.546875 252.222656 289.328125 252.222656 289.3125 C 252.242188 287.355469 252.261719 285.382812 252.265625 283.40625 C 252.695312 283.890625 253.097656 284.382812 253.480469 284.882812 C 254.5625 286.527344 255.425781 288.160156 256.109375 289.855469 C 256.382812 290.84375 256.574219 291.695312 256.695312 292.480469 C 256.726562 293.328125 256.71875 294.03125 256.667969 294.699219 Z M 72.726562 278.625 C 72.742188 278.640625 72.757812 278.664062 72.777344 278.683594 C 72.828125 278.773438 72.882812 278.875 72.941406 278.984375 C 72.984375 279.164062 73.015625 279.320312 73.023438 279.394531 C 73.035156 279.511719 73.019531 279.738281 73 280 C 72.90625 280.398438 72.796875 280.792969 72.660156 281.203125 C 72.3125 281.933594 71.992188 282.5625 71.632812 283.160156 C 71.246094 283.683594 70.855469 284.175781 70.46875 284.648438 L 70.46875 280.316406 C 70.5 279.71875 70.527344 279.121094 70.550781 278.523438 C 70.882812 278.484375 71.210938 278.457031 71.527344 278.441406 C 71.921875 278.472656 72.28125 278.511719 72.621094 278.566406 C 72.65625 278.585938 72.691406 278.605469 72.730469 278.625 Z M 116.070312 297.070312 C 117.625 295.792969 119.105469 294.304688 120.609375 292.492188 L 120.234375 296.988281 C 120.164062 297.695312 120.105469 298.398438 120.046875 299.09375 C 118.917969 298.113281 117.554688 297.410156 116.070312 297.070312 Z M 295.515625 297.070312 C 297.03125 295.828125 298.472656 294.382812 299.9375 292.636719 C 299.976562 293.410156 300.019531 294.183594 300.058594 294.957031 L 300.316406 299.894531 C 299.054688 298.496094 297.382812 297.496094 295.515625 297.066406 Z M 295.515625 297.070312 " fill-opacity="1" fill-rule="nonzero"/></g><g clip-path="url(#5417934178)"><path fill="#ffffff" d="M 342.675781 263.175781 C 341.164062 259.984375 338.828125 256.992188 335.726562 254.28125 C 335.671875 254.234375 335.621094 254.191406 335.566406 254.144531 C 334.21875 253.035156 332.679688 251.964844 331.101562 251.042969 C 328.957031 249.703125 326.710938 248.929688 324.769531 248.308594 C 324.734375 248.296875 324.699219 248.289062 324.660156 248.277344 C 320.957031 247.15625 317.5625 246.542969 314.277344 246.398438 C 314.171875 246.394531 314.066406 246.390625 313.960938 246.390625 L 311.585938 246.390625 C 310.835938 246.390625 310.082031 246.40625 309.328125 246.433594 C 307.773438 245.585938 306.019531 245.136719 304.191406 245.136719 L 303.730469 245.136719 C 303.46875 245.136719 303.207031 245.152344 302.949219 245.179688 C 300.703125 245.429688 298.578125 246.363281 296.800781 247.859375 C 296.507812 247.636719 296.246094 247.449219 296.027344 247.292969 C 296.027344 247.292969 295.929688 247.222656 295.910156 247.210938 C 294.617188 246.304688 293.398438 245.710938 291.980469 245.304688 C 290.191406 244.742188 288.609375 244.671875 287.554688 244.671875 C 286.941406 244.671875 286.101562 244.671875 285.167969 244.800781 C 281.574219 245.261719 278.128906 246.902344 274.636719 249.816406 C 274.621094 249.828125 274.605469 249.839844 274.589844 249.851562 C 270.628906 253.210938 267.269531 257.660156 264.785156 262.808594 C 263.121094 260.222656 261.195312 257.839844 259.09375 255.792969 C 255.570312 252.359375 251.941406 249.824219 248.3125 248.253906 C 246.652344 247.5 244.910156 246.980469 242.953125 246.675781 C 242.949219 246.667969 242.945312 246.660156 242.9375 246.65625 C 242.847656 246.550781 242.75 246.449219 242.652344 246.351562 C 240.589844 244.289062 237.894531 243.15625 235.066406 243.15625 C 234.714844 243.15625 233.988281 243.15625 233.082031 243.371094 C 230.386719 243.847656 227.984375 245.292969 226.210938 247.304688 C 224.503906 245.777344 222.257812 244.871094 219.816406 244.871094 C 218.582031 244.871094 217.363281 245.109375 216.195312 245.574219 C 213.824219 246.523438 211.878906 248.308594 210.722656 250.597656 C 209.726562 252.5625 209.34375 254.785156 209.613281 257.023438 C 209.617188 257.054688 209.617188 257.078125 209.621094 257.109375 C 209.914062 259.316406 210.160156 261.625 210.394531 263.863281 C 210.417969 264.097656 210.445312 264.335938 210.472656 264.574219 C 210.472656 264.574219 209.511719 262.957031 209.5 262.933594 C 208.15625 260.722656 206.675781 258.644531 205.53125 257.082031 C 204.191406 255.246094 202.34375 252.894531 199.945312 250.976562 C 199.890625 250.933594 199.832031 250.886719 199.773438 250.84375 C 199.644531 250.746094 199.5 250.644531 199.359375 250.542969 C 198.898438 250.136719 198.382812 249.789062 197.832031 249.511719 C 196.332031 248.765625 194.765625 248.386719 193.167969 248.386719 C 192.648438 248.386719 192.121094 248.425781 191.597656 248.507812 C 191.332031 248.542969 191.0625 248.59375 190.800781 248.648438 C 190.84375 248.457031 190.871094 248.292969 190.894531 248.171875 C 191 247.679688 191.054688 247.179688 191.054688 246.675781 C 191.054688 245.96875 190.96875 245.355469 190.875 244.878906 C 190.792969 242.257812 189.558594 239.714844 187.507812 237.992188 C 186.824219 237.316406 186.023438 236.746094 185.15625 236.308594 C 185.03125 236.25 184.90625 236.1875 184.777344 236.136719 C 183.464844 235.570312 182.121094 235.300781 180.667969 235.300781 C 177.792969 235.300781 175.007812 236.503906 172.816406 238.695312 C 172.75 238.761719 172.6875 238.828125 172.621094 238.898438 C 170.765625 240.910156 169.605469 243.710938 169.433594 246.589844 C 169.425781 246.730469 169.421875 246.867188 169.421875 247.007812 C 169.421875 247.957031 169.542969 248.894531 169.769531 249.800781 C 168.910156 249.234375 168.058594 248.816406 167.351562 248.519531 C 167.191406 248.457031 167.027344 248.394531 166.867188 248.339844 C 165.300781 247.816406 163.765625 247.5625 162.171875 247.5625 C 161.859375 247.5625 161.535156 247.574219 161.210938 247.59375 C 161.191406 247.59375 161.171875 247.597656 161.152344 247.597656 C 158.40625 247.792969 156.335938 249.113281 155.339844 249.746094 C 154.90625 250.023438 154.5 250.347656 154.136719 250.710938 C 154.089844 250.761719 153.949219 250.886719 153.851562 250.976562 C 153.632812 251.171875 153.363281 251.417969 153.078125 251.703125 L 151.839844 252.941406 C 150.796875 253.929688 150.046875 254.949219 149.441406 255.773438 C 149.261719 256.019531 149.09375 256.246094 148.953125 256.429688 C 148.902344 256.488281 148.855469 256.554688 148.808594 256.617188 C 147.945312 257.792969 147.152344 258.957031 146.449219 260.078125 C 146.078125 260.644531 145.71875 261.21875 145.375 261.789062 C 145.375 261.789062 144.375 258.59375 144.371094 258.582031 C 143.808594 256.824219 143.183594 255.019531 142.558594 253.355469 C 141.714844 250.992188 140.632812 248.976562 139.675781 247.199219 C 139.675781 247.199219 139.4375 246.753906 139.433594 246.75 C 137.675781 243.484375 134.269531 241.375 130.753906 241.375 C 130.417969 241.375 130.082031 241.398438 129.75 241.445312 L 129.289062 241.511719 C 128.816406 241.578125 128.355469 241.691406 127.914062 241.851562 C 126.394531 242.121094 124.988281 242.703125 123.726562 243.589844 C 121.722656 244.910156 120.59375 246.601562 119.90625 247.628906 C 119.605469 248.082031 119.359375 248.5625 119.167969 249.074219 C 119.128906 249.179688 119.085938 249.28125 119.046875 249.378906 C 118.167969 248.425781 117.1875 247.726562 116.578125 247.292969 C 116.578125 247.292969 116.480469 247.222656 116.460938 247.210938 C 115.167969 246.304688 113.949219 245.710938 112.527344 245.304688 C 110.742188 244.742188 109.15625 244.671875 108.105469 244.671875 C 107.492188 244.671875 106.652344 244.671875 105.71875 244.800781 C 102.125 245.261719 98.679688 246.902344 95.1875 249.816406 C 95.171875 249.828125 95.15625 249.839844 95.140625 249.855469 C 91.796875 252.6875 88.878906 256.300781 86.558594 260.453125 C 86.175781 259.359375 85.683594 258.234375 85.078125 257.074219 C 83.734375 254.484375 81.761719 252.183594 79.375 250.417969 C 79.359375 250.410156 79.347656 250.398438 79.332031 250.390625 C 79.21875 250.308594 79.109375 250.226562 79 250.144531 C 78.308594 249.632812 77.453125 249 76.34375 248.425781 C 75.03125 247.695312 73.777344 247.339844 72.929688 247.097656 C 72.792969 247.058594 72.65625 247.019531 72.519531 246.976562 C 70.132812 246.222656 67.824219 246.148438 65.96875 246.085938 C 65.773438 246.078125 65.582031 246.074219 65.390625 246.066406 C 65.300781 246.0625 65.214844 246.0625 65.128906 246.0625 L 64.996094 246.0625 C 62.636719 246.0625 60.460938 246.484375 58.710938 246.824219 L 58.261719 246.910156 C 56.644531 247.210938 55.136719 247.589844 53.679688 247.972656 L 53.441406 247.972656 C 53.054688 247.972656 52.664062 248.007812 52.277344 248.070312 C 50.90625 248.300781 49.625 248.726562 48.453125 249.347656 C 48.15625 249.425781 47.847656 249.507812 47.53125 249.589844 C 47.027344 249.71875 46.507812 249.855469 45.957031 250.007812 C 42.1875 251.035156 40.089844 254.183594 39.324219 255.582031 C 37.910156 258.09375 37.496094 260.976562 38.152344 263.722656 C 38.679688 266.058594 39.910156 268.085938 41.679688 269.566406 L 41.605469 272.644531 C 41.605469 272.703125 41.601562 272.761719 41.601562 272.816406 C 41.601562 273.910156 41.671875 274.960938 41.738281 275.894531 C 41.761719 276.261719 41.785156 276.613281 41.804688 276.941406 C 41.875 279.246094 42.007812 281.523438 42.136719 283.730469 C 42.238281 286.222656 42.519531 288.621094 42.792969 290.945312 C 42.925781 292.0625 43.050781 293.117188 43.152344 294.171875 C 43.160156 294.25 43.167969 294.320312 43.179688 294.398438 L 43.28125 295.1875 C 43.246094 295.945312 43.277344 296.707031 43.371094 297.460938 C 43.40625 297.746094 43.460938 298.027344 43.527344 298.304688 C 43.625 298.6875 43.742188 299.054688 43.863281 299.386719 C 43.957031 300.226562 44.089844 301.003906 44.207031 301.710938 C 44.21875 301.78125 44.230469 301.875 44.242188 301.9375 C 44.25 302.285156 44.28125 302.628906 44.339844 302.972656 C 44.429688 303.523438 44.566406 304.328125 44.894531 305.246094 C 45.527344 307.160156 46.476562 308.5 47.246094 309.460938 C 47.3125 309.542969 47.378906 309.621094 47.445312 309.703125 C 48.84375 311.296875 50.726562 312.398438 52.890625 312.875 C 53.066406 312.914062 53.246094 312.949219 53.425781 312.972656 C 53.910156 313.042969 54.410156 313.078125 54.910156 313.078125 C 57.382812 313.078125 59.851562 312.214844 61.6875 310.714844 C 61.703125 310.703125 61.71875 310.6875 61.738281 310.675781 C 62.292969 310.210938 63.203125 309.453125 64.003906 308.320312 C 64.578125 307.546875 65.054688 306.730469 65.433594 305.890625 C 65.859375 305.859375 66.292969 305.828125 66.742188 305.796875 C 67.722656 305.726562 68.738281 305.660156 69.8125 305.546875 C 69.832031 305.546875 69.847656 305.542969 69.867188 305.539062 C 71.234375 305.386719 72.632812 305.238281 73.988281 305.097656 C 76.75 304.804688 79.601562 304.503906 82.449219 304.140625 C 84.847656 303.839844 86.992188 302.660156 88.59375 300.933594 C 88.800781 301.160156 89.011719 301.378906 89.226562 301.59375 C 92.066406 304.433594 95.53125 306.3125 99.253906 307.03125 C 100.269531 307.238281 101.316406 307.34375 102.371094 307.34375 C 105.113281 307.34375 107.910156 306.65625 110.921875 305.238281 C 111.015625 305.191406 111.109375 305.144531 111.203125 305.097656 C 111.859375 304.753906 112.464844 304.347656 113.019531 303.894531 C 113.40625 305.945312 114.359375 307.859375 115.792969 309.382812 C 117.792969 311.503906 120.496094 312.671875 123.402344 312.671875 C 123.800781 312.671875 124.207031 312.648438 124.605469 312.605469 C 130.253906 311.972656 134.773438 306.992188 135.113281 301.015625 C 135.117188 300.976562 135.117188 300.941406 135.121094 300.90625 C 135.152344 300.179688 135.179688 299.457031 135.214844 298.730469 C 136.386719 300.453125 138.039062 301.820312 140.140625 302.796875 C 141.5 303.441406 142.945312 303.769531 144.441406 303.769531 C 148.238281 303.769531 151.863281 301.597656 153.898438 298.109375 C 153.976562 297.976562 154.050781 297.84375 154.117188 297.707031 C 154.378906 297.183594 154.664062 296.671875 154.964844 296.128906 C 154.984375 296.09375 155.003906 296.058594 155.019531 296.023438 C 155.917969 294.347656 156.410156 292.710938 156.738281 291.476562 C 157.003906 290.480469 157.203125 289.535156 157.378906 288.699219 L 157.40625 288.578125 C 157.402344 288.691406 157.398438 288.808594 157.398438 288.921875 C 157.398438 289.355469 157.347656 289.976562 157.296875 290.527344 C 157.289062 290.601562 157.285156 290.675781 157.28125 290.75 L 157.28125 290.800781 C 157.199219 292.125 157.101562 293.773438 157.441406 295.699219 C 157.457031 295.785156 157.472656 295.867188 157.492188 295.953125 C 158.492188 300.621094 162.503906 303.875 167.253906 303.875 C 168.066406 303.875 168.867188 303.777344 169.65625 303.585938 C 169.765625 305.917969 169.867188 308.25 169.945312 310.558594 C 169.949219 310.632812 169.953125 310.710938 169.960938 310.785156 C 170.03125 311.847656 170.246094 315.089844 172.796875 317.871094 C 172.867188 317.949219 172.9375 318.023438 173.011719 318.09375 C 174.949219 320.035156 177.585938 321.105469 180.433594 321.105469 C 180.6875 321.105469 180.945312 321.097656 181.199219 321.082031 C 181.335938 321.070312 181.46875 321.058594 181.605469 321.042969 C 184.40625 320.691406 187.003906 319.234375 188.925781 316.9375 C 190.804688 314.695312 191.789062 311.933594 191.703125 309.167969 C 191.703125 309.160156 191.703125 309.152344 191.703125 309.144531 C 191.695312 308.890625 191.6875 308.632812 191.679688 308.375 C 192.363281 308.511719 193.070312 308.578125 193.789062 308.578125 C 194.210938 308.578125 194.640625 308.554688 195.066406 308.503906 C 197.839844 308.191406 200.484375 306.8125 202.507812 304.621094 C 202.632812 304.484375 202.757812 304.339844 202.871094 304.191406 C 203.699219 303.140625 204.902344 301.304688 205.46875 298.976562 C 205.523438 299.054688 205.578125 299.132812 205.636719 299.210938 C 205.816406 299.480469 206.003906 299.75 206.183594 300.023438 C 207.199219 301.527344 208.246094 303.078125 209.421875 304.621094 C 209.59375 304.921875 209.832031 305.324219 210.152344 305.761719 C 211.316406 307.546875 212.773438 308.898438 214.605469 309.882812 C 214.636719 309.902344 214.667969 309.917969 214.703125 309.933594 C 216.207031 310.714844 217.847656 311.109375 219.578125 311.109375 C 221.308594 311.109375 223.214844 310.675781 225.050781 309.816406 C 225.695312 311.160156 226.636719 312.355469 227.820312 313.316406 C 229.664062 314.8125 231.984375 315.636719 234.355469 315.636719 C 234.746094 315.636719 235.136719 315.613281 235.523438 315.570312 C 237.304688 315.375 239 314.738281 240.46875 313.753906 C 242.777344 313.617188 244.792969 313.042969 246.449219 312.570312 C 246.535156 312.542969 246.621094 312.519531 246.707031 312.492188 C 250.929688 311.109375 254.996094 309.007812 258.460938 306.40625 C 258.53125 306.351562 258.601562 306.300781 258.667969 306.246094 C 260.199219 305.003906 261.78125 303.480469 263.371094 301.714844 C 263.410156 301.671875 263.445312 301.628906 263.484375 301.585938 C 264.316406 300.609375 265.117188 299.527344 265.890625 298.3125 C 266.734375 299.476562 267.660156 300.574219 268.675781 301.589844 C 271.515625 304.429688 274.980469 306.308594 278.703125 307.027344 C 279.71875 307.234375 280.765625 307.339844 281.820312 307.339844 C 284.5625 307.339844 287.359375 306.652344 290.367188 305.234375 C 290.464844 305.191406 290.558594 305.144531 290.652344 305.09375 C 292.269531 304.242188 293.597656 303.03125 294.5625 301.613281 C 294.675781 303.503906 294.84375 305.429688 295.132812 307.390625 C 295.132812 307.402344 295.136719 307.417969 295.136719 307.429688 C 295.902344 312.410156 300.34375 316.167969 305.460938 316.167969 C 305.851562 316.167969 306.25 316.144531 306.636719 316.097656 C 309.921875 315.726562 312.894531 313.828125 314.769531 311.136719 C 315.457031 311.4375 316.117188 311.703125 316.722656 311.949219 C 317.125 312.113281 317.507812 312.265625 317.878906 312.421875 C 317.984375 312.464844 318.09375 312.507812 318.207031 312.550781 C 319.519531 313.027344 320.8125 313.4375 322.066406 313.832031 C 322.347656 313.917969 322.625 314.007812 322.902344 314.097656 C 322.945312 314.109375 322.992188 314.125 323.039062 314.136719 C 323.367188 314.234375 323.691406 314.332031 324.015625 314.429688 C 325.453125 314.855469 326.9375 315.300781 328.484375 315.703125 C 329.269531 315.917969 330.074219 316.027344 330.886719 316.027344 C 335.972656 316.027344 339.710938 311.941406 340.695312 308.054688 C 341.355469 305.539062 341.070312 302.910156 339.917969 300.765625 C 339.007812 298.96875 337.703125 297.847656 336.558594 297.144531 C 336.574219 297.125 336.589844 297.113281 336.605469 297.09375 C 339.34375 294.277344 341.613281 290.722656 343.179688 286.816406 C 344.664062 283.148438 345.457031 279.355469 345.539062 275.535156 C 345.621094 271.433594 344.683594 267.390625 342.675781 263.171875 Z M 323.558594 278.027344 C 323.457031 278.5 323.339844 278.902344 323.199219 279.269531 C 322.882812 279.988281 322.589844 280.550781 322.292969 281.019531 C 321.789062 281.675781 321.246094 282.304688 320.675781 282.890625 C 319.6875 283.726562 318.53125 284.515625 316.96875 285.417969 C 316.714844 285.546875 316.457031 285.679688 316.195312 285.8125 C 316.195312 285.8125 316.09375 282.980469 316.09375 282.976562 C 315.957031 279.558594 315.808594 276.109375 315.660156 272.773438 C 315.625 271.984375 315.59375 271.191406 315.558594 270.390625 C 316.402344 270.554688 317.230469 270.757812 318.039062 271 C 319.082031 271.417969 320.035156 271.917969 320.933594 272.523438 C 321.605469 273.128906 322.167969 273.667969 322.625 274.207031 C 322.972656 274.785156 323.234375 275.265625 323.4375 275.703125 C 323.496094 275.96875 323.550781 276.300781 323.605469 276.671875 C 323.617188 277.054688 323.589844 277.523438 323.558594 278.027344 Z M 250.292969 284.355469 C 250.183594 284.859375 250.0625 285.285156 249.914062 285.675781 C 249.585938 286.414062 249.289062 286.988281 248.980469 287.464844 C 248.46875 288.15625 247.84375 288.828125 247.257812 289.425781 C 246.726562 289.832031 246.214844 290.203125 245.714844 290.535156 C 245.714844 290.527344 245.714844 290.519531 245.714844 290.511719 C 245.714844 286.738281 245.777344 283.078125 245.84375 279.203125 C 245.84375 279.203125 245.847656 278.984375 245.847656 278.96875 C 245.867188 277.011719 245.882812 275.039062 245.890625 273.0625 C 246.320312 273.546875 246.722656 274.039062 247.105469 274.539062 C 248.1875 276.183594 249.050781 277.816406 249.734375 279.511719 C 250.007812 280.5 250.199219 281.351562 250.320312 282.136719 C 250.351562 282.984375 250.34375 283.6875 250.292969 284.355469 Z M 66.347656 268.277344 C 66.367188 268.296875 66.382812 268.316406 66.402344 268.339844 C 66.449219 268.429688 66.503906 268.527344 66.5625 268.640625 C 66.605469 268.820312 66.636719 268.976562 66.648438 269.050781 C 66.65625 269.167969 66.640625 269.394531 66.621094 269.65625 C 66.53125 270.054688 66.417969 270.449219 66.28125 270.859375 C 65.933594 271.585938 65.613281 272.21875 65.253906 272.816406 C 64.867188 273.339844 64.480469 273.832031 64.089844 274.304688 L 64.089844 269.972656 C 64.121094 269.375 64.148438 268.773438 64.175781 268.179688 C 64.507812 268.140625 64.832031 268.113281 65.148438 268.097656 C 65.546875 268.128906 65.902344 268.167969 66.246094 268.222656 C 66.28125 268.242188 66.316406 268.261719 66.351562 268.28125 Z M 109.691406 286.726562 C 111.246094 285.449219 112.726562 283.960938 114.230469 282.148438 L 113.855469 286.644531 C 113.789062 287.351562 113.726562 288.054688 113.671875 288.75 C 112.539062 287.769531 111.179688 287.066406 109.691406 286.726562 Z M 289.140625 286.726562 C 290.652344 285.484375 292.09375 284.039062 293.558594 282.289062 C 293.601562 283.066406 293.640625 283.839844 293.679688 284.609375 L 293.941406 289.550781 C 292.675781 288.152344 291.003906 287.152344 289.140625 286.722656 Z M 289.140625 286.726562 " fill-opacity="1" fill-rule="nonzero"/></g><path fill="#004aad" d="M 84.402344 293.746094 C 84.339844 295.332031 83.148438 296.914062 81.5625 297.113281 C 77.40625 297.640625 73.246094 298.035156 69.085938 298.496094 C 67.171875 298.695312 65.324219 298.761719 63.40625 298.960938 C 61.953125 299.023438 60.503906 299.15625 58.984375 299.15625 C 59.910156 300.742188 59.3125 302.789062 58.257812 304.175781 C 57.992188 304.570312 57.597656 304.902344 57.203125 305.230469 C 56.476562 305.828125 55.351562 306.089844 54.429688 305.957031 C 53.835938 305.828125 53.238281 305.5625 52.777344 305.03125 C 52.25 304.371094 51.855469 303.777344 51.589844 302.917969 C 51.457031 302.589844 51.390625 302.195312 51.324219 301.796875 C 51.324219 301.335938 51.257812 300.9375 51.195312 300.542969 C 51.0625 299.75 50.929688 298.957031 50.863281 298.164062 C 50.796875 297.96875 50.796875 297.703125 50.734375 297.441406 C 50.601562 297.175781 50.46875 296.84375 50.402344 296.582031 C 50.335938 296.050781 50.335938 295.523438 50.402344 294.996094 L 50.203125 293.476562 C 49.875 290.109375 49.34375 286.742188 49.214844 283.378906 C 49.082031 281.132812 48.949219 278.886719 48.882812 276.644531 C 48.816406 275.386719 48.683594 274.066406 48.683594 272.8125 L 48.882812 264.625 C 48.15625 264.757812 47.429688 264.824219 46.640625 264.425781 C 45.78125 263.898438 45.253906 263.042969 45.054688 262.117188 C 44.789062 261.0625 44.988281 259.9375 45.515625 259.011719 C 45.976562 258.152344 46.835938 257.097656 47.824219 256.835938 C 49.015625 256.503906 50.136719 256.238281 51.257812 255.910156 C 51.917969 255.449219 52.644531 255.183594 53.4375 255.050781 L 53.835938 255.050781 C 54.03125 255.050781 54.230469 255.050781 54.363281 255.117188 C 56.078125 254.65625 57.796875 254.191406 59.578125 253.863281 C 61.292969 253.53125 63.144531 253.136719 64.992188 253.136719 L 65.125 253.136719 C 66.90625 253.203125 68.753906 253.203125 70.402344 253.730469 C 71.261719 253.996094 72.1875 254.191406 72.980469 254.65625 C 73.769531 255.050781 74.433594 255.578125 75.15625 256.109375 C 76.675781 257.230469 77.933594 258.683594 78.789062 260.332031 C 79.578125 261.851562 80.242188 263.503906 80.4375 265.152344 C 80.703125 266.9375 80.769531 268.652344 80.503906 270.433594 C 80.238281 272.480469 79.644531 274.328125 78.855469 276.242188 C 77.335938 279.675781 75.023438 282.777344 72.449219 285.488281 C 70.269531 287.664062 67.960938 289.710938 65.453125 291.5625 L 70.269531 291.363281 C 74.101562 291.296875 77.929688 291.164062 81.757812 291.097656 C 82.484375 291.097656 83.144531 291.230469 83.671875 291.757812 C 84.203125 292.285156 84.398438 293.078125 84.398438 293.738281 Z M 58.324219 288.265625 C 61.164062 286.550781 63.804688 284.503906 66.316406 282.257812 C 68.097656 280.609375 69.683594 278.757812 71.132812 276.777344 C 71.792969 275.722656 72.324219 274.664062 72.851562 273.542969 C 73.179688 272.617188 73.445312 271.695312 73.640625 270.703125 C 73.707031 269.976562 73.773438 269.25 73.707031 268.460938 C 73.640625 267.667969 73.441406 266.941406 73.246094 266.148438 C 72.914062 265.488281 72.585938 264.828125 72.191406 264.234375 C 71.726562 263.640625 71.265625 263.113281 70.734375 262.648438 C 70.011719 262.1875 69.28125 261.789062 68.558594 261.460938 C 67.433594 261.195312 66.378906 261.066406 65.257812 261 C 62.683594 261.066406 60.105469 261.660156 57.597656 262.253906 L 57.332031 262.320312 C 57.203125 264.828125 57.132812 267.339844 57.003906 269.78125 L 57.003906 276.050781 C 57.003906 278.628906 56.9375 281.136719 57.070312 283.644531 L 57.464844 288.859375 C 57.792969 288.660156 58.125 288.464844 58.390625 288.265625 Z M 58.324219 288.265625 " fill-opacity="1" fill-rule="nonzero"/><path fill="#004aad" d="M 116.289062 261.859375 C 116.09375 263.3125 115.894531 264.699219 115.433594 266.019531 C 115.035156 267.207031 114.574219 268.328125 114.113281 269.382812 C 112.921875 271.894531 111.535156 274.136719 109.820312 276.316406 C 108.300781 278.296875 106.652344 280.144531 104.671875 281.664062 C 103.679688 282.457031 102.625 283.183594 101.503906 283.777344 C 100.3125 284.503906 99.058594 285.230469 97.671875 285.5625 C 97.011719 285.761719 96.289062 286.023438 95.492188 286.089844 L 94.570312 286.089844 C 95.097656 287.609375 95.824219 288.996094 96.683594 290.316406 C 97.476562 291.371094 98.332031 292.296875 99.324219 293.089844 C 100.050781 293.617188 100.84375 294.015625 101.699219 294.34375 C 102.226562 294.476562 102.753906 294.542969 103.285156 294.609375 C 103.878906 294.609375 104.472656 294.542969 105.066406 294.410156 C 105.660156 294.210938 106.257812 294.015625 106.851562 293.75 C 108.105469 293.222656 109.492188 294.015625 109.753906 295.335938 C 110.085938 296.789062 109.160156 298.175781 107.90625 298.832031 C 105.660156 299.890625 103.152344 300.617188 100.644531 300.089844 C 98.199219 299.628906 96.023438 298.371094 94.238281 296.589844 C 90.871094 293.222656 88.824219 288.667969 88.296875 283.980469 C 88.296875 283.914062 88.296875 283.847656 88.234375 283.847656 C 87.773438 282.859375 87.703125 281.667969 87.96875 280.613281 C 88.035156 280.347656 88.101562 280.152344 88.234375 279.953125 C 88.363281 275.730469 89.355469 271.4375 90.9375 267.609375 C 92.917969 262.921875 95.824219 258.5625 99.71875 255.265625 C 101.699219 253.613281 104.007812 252.160156 106.652344 251.828125 C 107.113281 251.765625 107.640625 251.765625 108.105469 251.765625 C 108.898438 251.765625 109.691406 251.828125 110.480469 252.09375 C 111.207031 252.292969 111.734375 252.554688 112.394531 253.019531 C 112.855469 253.347656 113.519531 253.808594 113.914062 254.273438 C 114.839844 255.328125 115.566406 256.453125 115.894531 257.839844 C 116.289062 259.09375 116.488281 260.542969 116.289062 261.863281 Z M 109.359375 261.199219 C 109.359375 260.933594 109.292969 260.738281 109.226562 260.472656 L 109.027344 260.078125 C 108.828125 259.8125 108.566406 259.617188 108.300781 259.351562 C 108.101562 259.21875 107.90625 259.085938 107.640625 258.957031 C 107.511719 258.957031 107.3125 258.957031 107.179688 258.890625 C 106.652344 258.957031 106.191406 258.957031 105.726562 259.089844 L 104.671875 259.484375 C 103.746094 260.078125 102.957031 260.671875 102.164062 261.332031 C 100.84375 262.652344 99.652344 263.972656 98.597656 265.492188 C 97.476562 267.207031 96.550781 268.992188 95.757812 270.839844 C 95.03125 272.820312 94.4375 274.867188 94.109375 276.980469 C 94.109375 277.023438 94.085938 277.070312 94.042969 277.113281 L 95.628906 277.3125 C 95.890625 277.3125 96.15625 277.246094 96.417969 277.179688 C 97.210938 276.914062 98.003906 276.585938 98.792969 276.191406 C 99.917969 275.464844 101.039062 274.671875 102.09375 273.8125 C 103.613281 272.359375 104.933594 270.710938 106.1875 268.996094 C 107.179688 267.476562 108.039062 265.824219 108.761719 264.175781 L 109.359375 262.128906 Z M 109.359375 261.199219 " fill-opacity="1" fill-rule="nonzero"/><path fill="#004aad" d="M 168.382812 296.585938 C 166.667969 297.246094 164.816406 296.320312 164.421875 294.472656 C 164.222656 293.347656 164.292969 292.292969 164.355469 291.171875 C 164.421875 290.445312 164.488281 289.652344 164.488281 288.925781 C 164.554688 287.605469 164.621094 286.21875 164.621094 284.898438 C 164.75 280.011719 164.621094 275.058594 164.289062 270.175781 C 164.023438 267.667969 163.5625 265.222656 162.769531 262.847656 C 162.640625 262.515625 162.441406 262.121094 162.242188 261.789062 C 162.242188 261.726562 162.175781 261.726562 162.175781 261.660156 C 162.042969 261.59375 161.910156 261.527344 161.78125 261.527344 C 161.320312 261.925781 160.855469 262.386719 160.527344 262.914062 C 159.996094 263.574219 159.535156 264.167969 159.070312 264.828125 C 157.089844 267.800781 155.441406 270.96875 154.121094 274.269531 C 152.933594 277.371094 152.007812 280.609375 151.214844 283.84375 C 151.019531 284.765625 150.753906 285.757812 150.554688 286.746094 C 150.359375 287.671875 150.160156 288.660156 149.894531 289.652344 C 149.632812 290.640625 149.300781 291.699219 148.773438 292.691406 C 148.441406 293.285156 148.113281 293.878906 147.78125 294.539062 C 146.859375 296.125 144.945312 297.246094 143.160156 296.386719 C 142.304688 295.992188 141.511719 295.464844 140.984375 294.605469 C 140.585938 293.878906 140.386719 293.152344 140.257812 292.292969 C 140.058594 291.503906 139.796875 290.710938 139.597656 289.917969 L 138.476562 286.21875 C 137.75 283.515625 136.957031 280.871094 136.164062 278.167969 C 134.710938 273.347656 133.128906 268.59375 131.476562 263.839844 C 131.347656 263.378906 131.148438 262.914062 131.015625 262.519531 L 130.816406 264.300781 C 130.421875 268.195312 129.957031 272.09375 129.5625 276.054688 L 129.363281 279.222656 C 129.164062 281.601562 129.035156 283.976562 128.835938 286.289062 C 128.503906 291.109375 128.242188 295.863281 128.042969 300.617188 C 127.914062 302.925781 126.195312 305.304688 123.820312 305.566406 C 121.507812 305.832031 119.789062 303.851562 119.921875 301.605469 C 120.054688 298.898438 120.1875 296.191406 120.386719 293.484375 C 120.582031 291.371094 120.714844 289.324219 120.914062 287.28125 L 121.507812 280.152344 C 121.574219 279.160156 121.640625 278.035156 121.773438 277.046875 C 122.300781 273.21875 122.828125 269.453125 123.292969 265.625 C 123.6875 262.652344 124.214844 259.75 124.746094 256.777344 L 124.945312 254.53125 C 125.007812 254.070312 125.074219 253.542969 125.273438 253.011719 C 125.40625 252.550781 125.605469 252.089844 125.804688 251.558594 C 126.332031 250.769531 126.859375 249.976562 127.71875 249.445312 C 128.246094 249.050781 128.773438 248.851562 129.433594 248.785156 C 129.699219 248.71875 129.960938 248.65625 130.292969 248.519531 L 130.753906 248.457031 C 131.742188 248.457031 132.734375 249.25 133.195312 250.105469 C 134.1875 251.953125 135.175781 253.738281 135.90625 255.785156 C 136.5 257.367188 137.09375 259.085938 137.621094 260.734375 L 139.007812 265.160156 C 139.929688 267.863281 140.722656 270.574219 141.515625 273.347656 C 142.507812 276.78125 143.429688 280.210938 144.488281 283.644531 L 144.683594 282.722656 C 145.214844 280.542969 145.808594 278.429688 146.535156 276.382812 C 148.054688 272.09375 149.835938 267.800781 152.410156 263.90625 C 153.070312 262.847656 153.796875 261.789062 154.523438 260.800781 C 155.25 259.875 155.910156 258.820312 156.769531 258.027344 L 158.089844 256.707031 C 158.417969 256.375 158.8125 256.046875 159.144531 255.714844 C 159.871094 255.253906 160.726562 254.726562 161.652344 254.660156 C 162.707031 254.59375 163.632812 254.726562 164.625 255.058594 C 165.414062 255.386719 166.339844 255.914062 166.867188 256.574219 C 167.460938 257.433594 167.921875 258.160156 168.320312 259.085938 C 168.585938 259.878906 168.851562 260.667969 169.046875 261.460938 C 169.3125 262.449219 169.574219 263.507812 169.773438 264.496094 C 169.972656 265.75 170.101562 267.007812 170.167969 268.195312 C 170.367188 270.375 170.5 272.554688 170.5 274.730469 C 170.5625 277.4375 170.5625 280.078125 170.5 282.785156 C 170.5 285.558594 170.5 288.394531 170.699219 291.234375 C 171.621094 293.214844 170.367188 295.789062 168.386719 296.582031 Z M 168.382812 296.585938 " fill-opacity="1" fill-rule="nonzero"/><path fill="#004aad" d="M 184.625 309.394531 C 184.691406 311.507812 182.839844 313.75 180.730469 314.015625 C 179.738281 314.078125 178.75 313.816406 178.023438 313.089844 C 177.296875 312.296875 177.097656 311.304688 177.035156 310.316406 C 176.769531 302.722656 176.308594 295.132812 175.914062 287.539062 C 175.453125 278.890625 175.1875 270.242188 174.988281 261.59375 C 174.921875 259.148438 176.96875 256.640625 179.410156 256.375 L 179.875 256.375 C 180.796875 256.375 181.722656 256.707031 182.449219 257.433594 C 183.242188 258.292969 183.503906 259.414062 183.570312 260.535156 C 183.636719 269.25 183.835938 277.898438 184.03125 286.546875 C 184.230469 294.207031 184.363281 301.796875 184.628906 309.390625 Z M 176.503906 247.003906 C 176.570312 245.882812 177.035156 244.5625 177.824219 243.703125 C 178.617188 242.910156 179.609375 242.382812 180.664062 242.382812 C 181.125 242.382812 181.523438 242.449219 181.984375 242.648438 C 182.25 242.78125 182.511719 242.976562 182.710938 243.242188 C 183.4375 243.703125 183.898438 244.628906 183.765625 245.421875 C 183.765625 245.621094 183.765625 245.75 183.832031 245.882812 C 183.898438 246.148438 183.960938 246.410156 183.960938 246.675781 C 183.898438 246.9375 183.898438 247.203125 183.765625 247.398438 C 183.699219 247.859375 183.433594 248.324219 183.167969 248.65625 C 183.105469 248.65625 183.105469 248.71875 183.105469 248.71875 C 182.773438 249.179688 182.3125 249.644531 181.914062 249.910156 C 181.386719 250.304688 180.792969 250.570312 180.132812 250.636719 C 177.953125 250.964844 176.5 249.050781 176.5 247.003906 Z M 176.503906 247.003906 " fill-opacity="1" fill-rule="nonzero"/><path fill="#004aad" d="M 226.746094 292.425781 C 226.746094 294.210938 226.746094 295.992188 226.285156 297.640625 C 225.890625 299.488281 224.964844 301.535156 223.378906 302.660156 C 221.859375 303.648438 219.75 304.574219 217.964844 303.648438 C 217.105469 303.1875 216.511719 302.59375 215.984375 301.734375 C 215.722656 301.40625 215.523438 301.007812 215.324219 300.679688 C 213.941406 298.894531 212.683594 296.980469 211.429688 295.132812 C 210.703125 294.144531 210.042969 293.152344 209.382812 292.164062 C 207.800781 289.851562 206.214844 287.542969 204.765625 285.230469 C 203.308594 282.921875 201.792969 280.675781 200.339844 278.363281 C 199.152344 276.449219 198.03125 274.601562 196.773438 272.6875 L 197.171875 277.636719 C 197.632812 283.84375 198.160156 290.050781 198.691406 296.253906 C 198.753906 297.507812 198.03125 298.894531 197.304688 299.820312 C 196.511719 300.679688 195.453125 301.339844 194.269531 301.46875 C 193.144531 301.601562 192.023438 301.269531 191.230469 300.414062 C 190.371094 299.554688 190.175781 298.5 190.105469 297.3125 C 189.644531 290.777344 189.117188 284.238281 188.785156 277.703125 C 188.65625 274.730469 188.457031 271.828125 188.324219 268.921875 L 188.125 264.960938 C 188.0625 264.171875 188.0625 263.3125 187.996094 262.453125 C 187.996094 261.527344 187.996094 260.605469 188.257812 259.613281 C 188.523438 258.625 188.984375 257.832031 189.644531 257.105469 C 190.4375 256.3125 191.429688 255.652344 192.617188 255.519531 C 193.339844 255.390625 194 255.519531 194.660156 255.851562 C 194.925781 256.113281 195.257812 256.3125 195.519531 256.511719 C 197.171875 257.832031 198.554688 259.546875 199.8125 261.265625 C 201.066406 262.980469 202.320312 264.761719 203.441406 266.613281 L 205.753906 270.507812 C 207.207031 273.015625 208.722656 275.527344 210.175781 277.96875 C 213.082031 282.785156 216.117188 287.539062 219.21875 292.160156 C 219.285156 290.707031 219.417969 289.257812 219.417969 287.804688 C 219.417969 284.304688 219.21875 280.738281 218.957031 277.238281 L 218.957031 277.4375 C 218.628906 273.875 218.230469 270.242188 217.835938 266.742188 C 217.441406 263.246094 217.109375 259.679688 216.648438 256.179688 C 216.449219 254.53125 217.175781 252.8125 218.828125 252.152344 C 219.15625 252.023438 219.488281 251.953125 219.816406 251.953125 C 221.007812 251.953125 221.996094 252.75 222.261719 253.933594 C 223.515625 259.875 224.375 265.882812 225.296875 271.828125 C 225.761719 274.863281 226.15625 277.902344 226.355469 280.9375 C 226.554688 282.917969 226.683594 284.964844 226.75 286.945312 C 226.816406 288.796875 226.683594 290.578125 226.75 292.425781 Z M 219.023438 278.167969 C 218.957031 277.902344 218.957031 277.703125 218.957031 277.441406 Z M 219.023438 278.167969 " fill-opacity="1" fill-rule="nonzero"/><path fill="#004aad" d="M 261.144531 292.425781 C 260.285156 294.011719 259.296875 295.59375 258.109375 296.980469 C 256.917969 298.300781 255.597656 299.621094 254.214844 300.746094 C 251.308594 302.921875 247.941406 304.640625 244.507812 305.761719 C 242.660156 306.292969 240.8125 306.820312 238.832031 306.6875 L 237.839844 306.488281 C 237.179688 307.609375 235.992188 308.402344 234.738281 308.535156 C 233.085938 308.734375 231.4375 307.609375 231.171875 305.894531 C 230.644531 302.726562 230.777344 299.488281 230.710938 296.253906 C 230.710938 294.734375 230.644531 293.285156 230.644531 291.765625 C 230.578125 287.871094 230.578125 283.910156 230.515625 280.011719 C 230.449219 271.824219 230.316406 263.640625 230.183594 255.519531 C 230.117188 253.078125 232.164062 250.570312 234.609375 250.304688 C 234.738281 250.238281 234.871094 250.238281 235.070312 250.238281 C 235.992188 250.238281 236.917969 250.636719 237.644531 251.359375 C 238.171875 251.953125 238.503906 252.679688 238.632812 253.472656 L 240.085938 253.472656 C 241.9375 253.605469 243.71875 253.933594 245.433594 254.730469 C 248.671875 256.113281 251.640625 258.425781 254.148438 260.867188 C 256.726562 263.378906 258.902344 266.414062 260.554688 269.648438 C 262.335938 273.148438 263.523438 276.910156 263.65625 280.871094 C 263.855469 284.832031 263.0625 288.859375 261.148438 292.425781 Z M 257.378906 281.464844 C 257.183594 280.011719 256.851562 278.628906 256.457031 277.242188 C 255.53125 274.867188 254.34375 272.621094 252.890625 270.441406 C 251.109375 268.066406 248.996094 265.953125 246.617188 264.039062 C 245.035156 262.917969 243.449219 261.992188 241.667969 261.265625 C 240.742188 261 239.753906 260.867188 238.761719 260.734375 C 238.828125 266.808594 238.828125 272.882812 238.761719 278.890625 C 238.695312 282.785156 238.632812 286.617188 238.632812 290.511719 C 238.566406 291.4375 238.566406 292.359375 238.566406 293.285156 C 239.292969 293.945312 239.6875 294.933594 239.621094 295.992188 C 239.492188 297.445312 239.421875 298.894531 239.226562 300.347656 L 239.6875 300.347656 C 240.28125 300.347656 240.808594 300.285156 241.402344 300.148438 C 243.714844 299.488281 245.957031 298.566406 248.007812 297.445312 C 249.390625 296.652344 250.710938 295.726562 251.964844 294.738281 C 252.957031 293.746094 253.945312 292.691406 254.804688 291.503906 C 255.464844 290.511719 255.996094 289.457031 256.457031 288.398438 C 256.851562 287.410156 257.117188 286.417969 257.316406 285.363281 C 257.445312 284.042969 257.445312 282.789062 257.378906 281.46875 Z M 257.378906 281.464844 " fill-opacity="1" fill-rule="nonzero"/><path fill="#004aad" d="M 295.738281 261.859375 C 295.542969 263.3125 295.34375 264.699219 294.882812 266.019531 C 294.484375 267.207031 294.023438 268.328125 293.5625 269.382812 C 292.371094 271.894531 290.984375 274.136719 289.269531 276.316406 C 287.75 278.296875 286.101562 280.144531 284.121094 281.664062 C 283.128906 282.457031 282.074219 283.183594 280.953125 283.777344 C 279.761719 284.503906 278.507812 285.230469 277.121094 285.5625 C 276.460938 285.761719 275.734375 286.023438 274.941406 286.089844 L 274.019531 286.089844 C 274.546875 287.609375 275.273438 288.996094 276.132812 290.316406 C 276.921875 291.371094 277.78125 292.296875 278.773438 293.089844 C 279.496094 293.617188 280.292969 294.015625 281.148438 294.34375 C 281.675781 294.476562 282.203125 294.542969 282.734375 294.609375 C 283.328125 294.609375 283.921875 294.542969 284.515625 294.410156 C 285.109375 294.210938 285.707031 294.015625 286.300781 293.75 C 287.554688 293.222656 288.941406 294.015625 289.203125 295.335938 C 289.535156 296.789062 288.609375 298.175781 287.355469 298.832031 C 285.109375 299.890625 282.601562 300.617188 280.09375 300.089844 C 277.648438 299.628906 275.472656 298.371094 273.6875 296.589844 C 270.324219 293.222656 268.273438 288.667969 267.746094 283.980469 C 267.746094 283.914062 267.746094 283.847656 267.683594 283.847656 C 267.21875 282.859375 267.152344 281.667969 267.417969 280.613281 C 267.484375 280.347656 267.546875 280.152344 267.683594 279.953125 C 267.8125 275.730469 268.804688 271.4375 270.386719 267.609375 C 272.367188 262.921875 275.273438 258.5625 279.167969 255.265625 C 281.148438 253.613281 283.457031 252.160156 286.101562 251.828125 C 286.5625 251.765625 287.089844 251.765625 287.554688 251.765625 C 288.34375 251.765625 289.140625 251.828125 289.929688 252.09375 C 290.65625 252.292969 291.183594 252.554688 291.84375 253.019531 C 292.304688 253.347656 292.96875 253.808594 293.363281 254.273438 C 294.289062 255.328125 295.015625 256.453125 295.34375 257.839844 C 295.738281 259.09375 295.9375 260.542969 295.738281 261.863281 Z M 288.808594 261.199219 C 288.808594 260.933594 288.742188 260.738281 288.675781 260.472656 L 288.476562 260.078125 C 288.277344 259.8125 288.015625 259.617188 287.75 259.351562 C 287.550781 259.21875 287.355469 259.085938 287.089844 258.957031 C 286.960938 258.957031 286.761719 258.957031 286.628906 258.890625 C 286.101562 258.957031 285.640625 258.957031 285.175781 259.089844 L 284.121094 259.484375 C 283.195312 260.078125 282.40625 260.671875 281.613281 261.332031 C 280.292969 262.652344 279.101562 263.972656 278.046875 265.492188 C 276.925781 267.207031 276 268.992188 275.207031 270.839844 C 274.480469 272.820312 273.886719 274.867188 273.558594 276.980469 C 273.558594 277.023438 273.535156 277.070312 273.492188 277.113281 L 275.078125 277.3125 C 275.339844 277.3125 275.605469 277.246094 275.867188 277.179688 C 276.660156 276.914062 277.453125 276.585938 278.242188 276.191406 C 279.363281 275.464844 280.488281 274.671875 281.542969 273.8125 C 283.0625 272.359375 284.382812 270.710938 285.636719 268.996094 C 286.628906 267.476562 287.488281 265.824219 288.210938 264.175781 L 288.808594 262.128906 Z M 288.808594 261.199219 " fill-opacity="1" fill-rule="nonzero"/><path fill="#004aad" d="M 324.988281 297.378906 C 323.996094 297.972656 323.074219 298.5 322.082031 299.027344 C 325.050781 300.347656 328.089844 301.472656 331.125 302.527344 L 331.984375 302.792969 C 332.710938 303.058594 333.304688 303.320312 333.636719 304.046875 C 334.03125 304.707031 334.03125 305.566406 333.835938 306.292969 C 333.503906 307.675781 331.921875 309.328125 330.335938 308.867188 C 328.550781 308.40625 326.835938 307.875 325.054688 307.347656 C 323.601562 306.886719 322.085938 306.421875 320.628906 305.894531 C 319.375 305.363281 318.121094 304.902344 316.867188 304.308594 L 313.898438 302.855469 C 313.433594 303.054688 312.90625 303.25 312.378906 303.386719 C 311.78125 303.582031 310.992188 303.847656 310.332031 303.847656 C 310.199219 303.847656 310.066406 303.847656 309.9375 303.910156 C 309.871094 304.441406 309.804688 304.902344 309.671875 305.429688 C 309.339844 307.214844 307.625 308.863281 305.84375 309.0625 C 304.125 309.261719 302.410156 308.070312 302.144531 306.355469 C 301.613281 302.789062 301.550781 299.160156 301.351562 295.527344 L 300.757812 284.238281 C 300.296875 275.324219 299.769531 266.347656 299.304688 257.433594 C 299.238281 256.179688 299.898438 254.792969 300.691406 253.933594 C 301.480469 253.007812 302.539062 252.347656 303.726562 252.21875 L 304.1875 252.21875 C 305.113281 252.21875 306.035156 252.546875 306.761719 253.273438 L 307.027344 253.667969 C 308.546875 253.539062 310.0625 253.46875 311.582031 253.46875 L 313.957031 253.46875 C 316.929688 253.601562 319.769531 254.195312 322.605469 255.054688 C 324.257812 255.582031 325.976562 256.175781 327.425781 257.101562 C 328.679688 257.828125 329.9375 258.683594 331.058594 259.609375 C 333.171875 261.457031 335.085938 263.703125 336.273438 266.210938 C 337.65625 269.117188 338.515625 272.152344 338.453125 275.390625 C 338.386719 278.425781 337.726562 281.398438 336.601562 284.171875 C 335.414062 287.140625 333.699219 289.914062 331.519531 292.160156 C 330.460938 293.214844 329.40625 294.273438 328.21875 295.199219 C 327.160156 295.988281 326.105469 296.714844 324.984375 297.375 Z M 325.515625 288.070312 C 326.441406 287.144531 327.300781 286.15625 328.089844 285.097656 C 328.75 284.109375 329.28125 283.054688 329.742188 281.996094 C 330.136719 281.003906 330.402344 280.015625 330.601562 278.960938 C 330.664062 277.96875 330.730469 276.980469 330.664062 275.988281 C 330.535156 275.066406 330.402344 274.207031 330.136719 273.347656 C 329.675781 272.226562 329.082031 271.167969 328.421875 270.113281 C 327.496094 268.925781 326.441406 267.933594 325.316406 266.945312 C 323.734375 265.820312 322.082031 264.964844 320.367188 264.304688 C 317.59375 263.445312 314.753906 262.984375 311.917969 262.851562 C 310.660156 262.851562 309.40625 262.851562 308.152344 262.917969 C 308.417969 269.714844 308.746094 276.449219 309.011719 283.25 L 309.40625 294.144531 C 309.539062 294.078125 309.605469 294.078125 309.738281 294.011719 C 309.867188 294.078125 310.066406 294.078125 310.199219 294.078125 C 310.726562 294.078125 311.253906 294.078125 311.71875 294.210938 C 312.378906 294.339844 313.039062 294.605469 313.632812 294.804688 C 314.359375 294.539062 315.085938 294.210938 315.746094 293.878906 C 317.332031 293.152344 318.847656 292.425781 320.367188 291.632812 C 322.214844 290.578125 323.929688 289.457031 325.515625 288.070312 Z M 325.515625 288.070312 " fill-opacity="1" fill-rule="nonzero"/></svg>